<?xml version="1.0" encoding="UTF-8"?>
<svg id="Title" xmlns="http://www.w3.org/2000/svg" viewBox="0 0 695.31 115">
  <defs>
    <style>
      .cls-1 {
        fill: #004461;
      }

      .cls-1, .cls-2, .cls-3, .cls-4 {
        stroke-width: 0px;
      }

      .cls-2 {
        fill: #cc2823;
      }

      .cls-3 {
        fill: #fff;
      }

      .cls-4 {
        fill: #da3925;
      }
    </style>
  </defs>
  <g id="FLIS_Title_Colour" data-name="FLIS Title Colour">
    <g>
      <ellipse id="White_Round" data-name="White Round" class="cls-3" cx="57.5" cy="57.5" rx="54.98" ry="54.91"/>
      <g id="FLIS_LOGO" data-name="FLIS LOGO">
        <path id="Outer_Circle" data-name="Outer Circle" class="cls-1" d="M57.5,0C25.79,0,0,25.79,0,57.5s25.79,57.5,57.5,57.5,57.5-25.79,57.5-57.5S89.21,0,57.5,0ZM57.5,111.8c-29.94,0-54.3-24.36-54.3-54.3S27.56,3.2,57.5,3.2s54.3,24.36,54.3,54.3-24.36,54.3-54.3,54.3Z"/>
        <path id="Inner_Outline" data-name="Inner Outline" class="cls-4" d="M57.5,4.82C28.45,4.82,4.82,28.45,4.82,57.5s23.63,52.68,52.68,52.68,52.68-23.63,52.68-52.68S86.55,4.82,57.5,4.82ZM57.5,109.51c-28.68,0-52.01-23.33-52.01-52.01S28.82,5.48,57.5,5.48s52.01,23.33,52.01,52.02-23.33,52.01-52.01,52.01Z"/>
        <g>
          <path class="cls-1" d="M21.24,77.81l1.36,2.19-1.01.63-.54-.88-.96.59.51.82-.96.6-.51-.82-1.11.69.6.96-1.01.63-1.41-2.28,5.05-3.13Z"/>
          <path class="cls-1" d="M25.37,83.73l-4.71,3.63-.83-1.07,1.65-2.29-2.14,1.65-.79-1.02,4.71-3.63.79,1.02-1.59,2.32,2.12-1.63.79,1.02Z"/>
          <path class="cls-1" d="M27.08,88.75l-1.07-1.11.39-.38c.24-.24.39-.39.43-.48.04-.08.02-.16-.05-.24-.07-.07-.14-.09-.21-.06-.08.03-.22.15-.44.36l-2.05,1.98c-.19.19-.31.32-.34.4s-.02.16.05.24c.08.08.17.1.26.07.1-.04.24-.15.44-.34l.51-.49-.22-.22.65-.63,1.26,1.3-2.29,2.22-.68-.7.21-.4c-.2.05-.4.05-.57,0-.18-.05-.34-.16-.49-.31-.18-.19-.3-.41-.37-.66s-.07-.48-.02-.7c.05-.21.14-.4.27-.57.13-.16.34-.39.63-.67l1.27-1.23c.41-.39.73-.66.95-.79.23-.13.52-.17.87-.11.36.06.69.25,1.01.59.31.32.51.66.58,1,.07.34.05.64-.07.88-.12.24-.36.53-.71.87l-.18.18Z"/>
          <path class="cls-1" d="M30.77,89.06l-3.08,3.63.72.61-.77.91-1.9-1.61,3.85-4.53,1.18,1Z"/>
          <path class="cls-1" d="M33.59,91.22l-3.49,4.81-1.25-.91,3.49-4.81,1.25.91Z"/>
          <path class="cls-1" d="M36.56,95.2l-1.23-.74.23-.38c.11-.18.16-.3.15-.36,0-.07-.04-.12-.11-.17-.08-.05-.16-.05-.24-.01-.08.04-.16.13-.24.26-.1.17-.16.31-.16.43,0,.11.06.29.19.54.38.7.58,1.21.6,1.53.02.32-.12.72-.42,1.23-.22.36-.42.61-.61.73-.19.12-.44.17-.75.14s-.63-.14-.96-.33c-.36-.21-.62-.46-.79-.74s-.23-.55-.19-.81c.05-.25.18-.57.41-.96l.2-.33,1.23.74-.37.62c-.11.19-.17.32-.17.4,0,.07.05.14.14.19.09.05.17.06.26.01.08-.04.17-.13.25-.27.18-.3.26-.52.23-.66-.03-.14-.14-.42-.34-.83-.2-.42-.32-.7-.37-.87s-.06-.35-.02-.57.13-.46.29-.73c.23-.39.45-.65.66-.77s.45-.17.74-.13c.28.03.58.14.9.33.34.21.61.44.78.69.18.26.25.49.23.71s-.15.53-.4.93l-.12.2Z"/>
          <path class="cls-1" d="M41.81,95.71l-2.46,5.41-1.41-.64,1.03-2.27-.42-.19-1.03,2.27-1.41-.64,2.46-5.41,1.41.64-.88,1.94.42.19.88-1.94,1.41.64Z"/>
          <path class="cls-1" d="M49.53,98.02l-1.45,5.76-1.31-.33.98-3.89-1.5,3.76-.93-.23.41-3.94-.96,3.8-1.31-.33,1.45-5.76,1.94.49c-.03.36-.07.78-.13,1.27l-.16,1.52,1.02-2.6,1.95.49Z"/>
          <path class="cls-1" d="M50.75,98.19l2.56.34-.15,1.18-1.02-.13-.15,1.12.96.13-.15,1.12-.96-.13-.17,1.3,1.12.15-.15,1.18-2.66-.35.77-5.89Z"/>
          <path class="cls-1" d="M54.48,98.64l1.16.03c.75.02,1.25.07,1.51.15.26.08.46.19.59.36.13.16.21.34.24.53.03.19.03.57.02,1.13l-.06,2.08c-.02.53-.05.89-.11,1.07-.06.18-.15.32-.27.41s-.28.16-.47.2-.46.05-.83.04l-1.95-.06.17-5.94ZM55.99,99.7l-.11,3.91c.22,0,.36-.03.41-.12.05-.09.09-.33.1-.73l.07-2.31c0-.27,0-.44-.01-.52s-.05-.13-.11-.17c-.06-.04-.17-.06-.34-.06Z"/>
          <path class="cls-1" d="M60.83,98.58l.36,5.93-1.54.09-.36-5.93,1.54-.09Z"/>
          <path class="cls-1" d="M65.59,97.96l.6,3.93c.07.45.1.76.1.95,0,.18-.06.38-.17.59-.11.21-.28.38-.5.52-.22.13-.49.22-.8.27-.35.05-.67.04-.96-.03-.29-.08-.51-.2-.67-.36-.16-.17-.27-.35-.33-.55s-.13-.64-.23-1.3l-.53-3.48,1.53-.23.67,4.41c.04.26.08.42.12.49.04.07.1.09.19.08.1-.01.15-.06.17-.15.02-.08,0-.27-.04-.56l-.66-4.33,1.53-.23Z"/>
          <path class="cls-1" d="M71.34,96.44l1.64,5.71-1.3.37-1.11-3.86.59,4.01-.92.26-1.63-3.61,1.08,3.77-1.3.37-1.64-5.71,1.92-.55c.16.33.33.72.52,1.16l.63,1.39-.42-2.77,1.93-.55Z"/>
          <path class="cls-1" d="M78.13,95.37l-1.29.63-.19-.4c-.09-.19-.16-.29-.22-.33-.06-.03-.12-.03-.2,0-.08.04-.13.11-.14.19,0,.09.02.2.09.34.09.18.18.3.27.37.09.07.27.11.55.13.8.06,1.33.18,1.61.33.28.16.54.5.8,1.02.19.38.28.68.28.91,0,.22-.1.46-.29.71-.2.25-.46.45-.8.62-.37.18-.72.27-1.05.25-.33-.01-.59-.11-.78-.29s-.38-.47-.58-.87l-.17-.35,1.29-.63.32.65c.1.2.18.32.24.36.06.04.14.04.23,0,.09-.05.14-.12.15-.21,0-.09-.02-.21-.09-.36-.15-.31-.3-.5-.43-.55-.14-.05-.43-.11-.89-.17-.46-.06-.77-.11-.93-.16-.16-.05-.33-.15-.49-.29-.16-.15-.31-.36-.45-.64-.2-.41-.29-.73-.28-.97.01-.24.11-.47.29-.69.18-.22.44-.41.77-.57.36-.18.7-.27,1.01-.28.31,0,.55.06.72.19.17.14.36.42.57.84l.1.21Z"/>
          <path class="cls-1" d="M82.86,93.4l-1.3.83-.55-.87c-.16-.25-.28-.4-.34-.45s-.15-.04-.24.02c-.11.07-.15.15-.13.25.02.09.11.27.27.52l1.48,2.33c.15.24.27.39.35.45s.17.05.27-.01c.1-.06.14-.14.12-.23s-.11-.28-.29-.55l-.4-.63,1.3-.83.12.2c.33.52.53.91.59,1.17.07.26.02.56-.12.88-.15.32-.4.6-.77.83-.38.24-.74.37-1.08.39-.34.02-.62-.07-.86-.26s-.51-.54-.82-1.03l-.93-1.47c-.23-.36-.39-.64-.48-.84s-.13-.42-.11-.66.1-.49.26-.72c.16-.23.38-.44.66-.62.38-.24.75-.37,1.09-.38s.63.07.85.24c.22.17.48.49.78.96l.3.48Z"/>
          <path class="cls-1" d="M85.18,88.29l3.74,4.62-1.2.97-1.57-1.94-.36.29,1.57,1.94-1.2.97-3.74-4.62,1.2-.97,1.34,1.65.36-.29-1.34-1.65,1.2-.97Z"/>
          <path class="cls-1" d="M91.05,87.4c.43.42.72.73.87.92.16.19.26.42.3.67s.01.5-.08.76c-.1.26-.27.5-.5.74-.22.23-.46.39-.71.5s-.51.14-.76.11c-.26-.04-.48-.13-.68-.28-.19-.15-.51-.44-.95-.87l-.72-.71c-.43-.42-.72-.73-.87-.92s-.26-.42-.3-.67c-.04-.25-.01-.5.08-.76.1-.26.27-.51.5-.74.22-.23.46-.39.71-.5.25-.11.51-.14.76-.11.26.04.48.13.68.28.2.15.51.44.95.87l.72.71ZM88.57,87.13c-.2-.19-.33-.31-.41-.34-.08-.03-.15-.01-.21.05-.06.06-.08.12-.06.2.01.07.13.22.35.43l1.98,1.95c.25.24.41.38.48.42.08.04.15.02.22-.05.07-.07.09-.16.04-.24s-.19-.25-.44-.5l-1.95-1.92Z"/>
          <path class="cls-1" d="M94.29,83.41c.47.37.79.64.97.82.18.18.3.38.37.63s.07.5,0,.76c-.07.27-.21.53-.41.8-.2.25-.41.44-.65.58-.24.13-.49.2-.75.19-.26,0-.49-.07-.7-.2-.21-.13-.56-.38-1.04-.76l-.8-.63c-.47-.37-.79-.64-.97-.82-.18-.18-.3-.38-.37-.63-.07-.24-.07-.5,0-.76.07-.27.21-.53.41-.8.2-.25.41-.44.65-.58.24-.13.49-.2.75-.19.26,0,.49.07.7.2s.56.38,1.04.76l.8.63ZM91.8,83.42c-.22-.17-.37-.27-.45-.29s-.15,0-.21.08c-.05.06-.06.13-.04.2.02.07.15.2.39.39l2.18,1.71c.27.21.45.33.53.36.08.03.15,0,.22-.08.07-.08.07-.16.01-.24-.05-.08-.22-.23-.5-.45l-2.15-1.69Z"/>
          <path class="cls-1" d="M93.06,78.94l4.01,2.55.5-.79,1,.64-1.34,2.1-5.01-3.19.83-1.3Z"/>
        </g>
        <g>
          <path class="cls-2" d="M9.96,56.41l.19-3.64,1.65.09-.08,1.49,1.57.08.07-1.33,1.57.08-.07,1.33,3.47.18-.11,2.15-8.27-.44Z"/>
          <path class="cls-2" d="M11.09,46.78l5.45.94c.62.11,1.05.2,1.29.28.24.08.48.25.71.49.23.24.38.54.47.89.08.35.08.74,0,1.18-.08.49-.24.9-.46,1.25s-.48.59-.77.73c-.29.14-.58.2-.88.19-.29-.02-.9-.1-1.82-.26l-4.83-.83.36-2.12,6.12,1.05c.36.06.59.08.69.06s.17-.09.19-.21c.02-.13-.02-.23-.12-.29s-.36-.12-.76-.19l-6.01-1.04.36-2.12Z"/>
          <path class="cls-2" d="M12.75,41.15l1.58.48-.37,1.22,6.33,1.94-.63,2.06-6.33-1.94-.37,1.22-1.58-.48,1.38-4.5Z"/>
          <path class="cls-2" d="M15.17,35.58l5.05,2.27c.57.26.97.46,1.18.6.21.14.4.36.56.65s.24.62.23.97c0,.36-.11.74-.29,1.15-.2.45-.46.82-.76,1.09s-.61.45-.93.51c-.32.06-.61.05-.89-.04-.28-.09-.85-.32-1.7-.71l-4.47-2.01.88-1.96,5.66,2.55c.33.15.55.23.66.23s.19-.05.24-.15c.06-.12.04-.23-.04-.31-.09-.08-.32-.21-.69-.38l-5.56-2.51.88-1.96Z"/>
          <path class="cls-2" d="M15.92,34.18l.81-1.29c.54-.86.94-1.42,1.19-1.69.26-.26.58-.41.98-.43s.89.15,1.49.53c.55.34.87.64.97.89.1.25.05.59-.16,1.01.32-.31.59-.47.82-.5.23-.03.41-.02.56.03s.5.25,1.07.6l1.85,1.16-1.06,1.7-2.33-1.46c-.38-.23-.63-.35-.75-.35-.13,0-.27.13-.43.38l3.17,1.98-1.14,1.83-7.02-4.39ZM18.26,33.1l1.56.98c.13-.2.19-.37.19-.48,0-.12-.16-.27-.47-.47l-.39-.24c-.22-.14-.39-.19-.51-.15-.12.04-.24.16-.38.37Z"/>
          <path class="cls-2" d="M19.36,28.91l2.25-2.8,1.29,1.04-.9,1.12,1.22.98.84-1.05,1.23.99-.84,1.05,1.42,1.14.99-1.23,1.29,1.04-2.34,2.91-6.45-5.19Z"/>
          <path class="cls-2" d="M25.41,22.27l4.53,4.83.95-.9,1.13,1.21-2.52,2.37-5.67-6.03,1.57-1.47Z"/>
          <path class="cls-2" d="M27.14,20.72l2.84-2.19,1.01,1.31-1.14.88.96,1.24,1.07-.82.96,1.25-1.07.82,1.11,1.44,1.25-.96,1.01,1.31-2.96,2.28-5.05-6.56Z"/>
          <path class="cls-2" d="M34.32,15.8l5.32,6.46-1.89,1.13-.87-1.22-.66.4.66,1.34-1.91,1.15-3.33-7.66,2.67-1.6ZM36.08,20.95c-.58-.75-1.27-1.68-2.07-2.81.63,1.47,1.11,2.54,1.44,3.19l.63-.38Z"/>
          <path class="cls-2" d="M36.34,14.69l1.48-.64c.95-.41,1.62-.65,1.99-.71.37-.06.69-.03.95.1.26.12.47.3.62.53s.38.7.69,1.42l1.15,2.66c.3.68.46,1.15.5,1.41s0,.49-.1.69c-.1.2-.26.38-.47.53-.21.15-.55.33-1.03.54l-2.49,1.08-3.3-7.6ZM38.88,15.13l2.17,5c.28-.12.44-.26.45-.4.02-.14-.09-.47-.31-.97l-1.28-2.95c-.15-.34-.26-.56-.32-.65-.06-.09-.14-.14-.24-.15-.1-.01-.25.03-.47.12Z"/>
          <path class="cls-2" d="M42.33,12.24l3.44-1.02.47,1.59-1.38.41.45,1.51,1.29-.38.45,1.51-1.29.38.52,1.75,1.52-.45.47,1.59-3.58,1.06-2.35-7.94Z"/>
          <path class="cls-2" d="M47.14,10.87l1.5-.26c1-.17,1.69-.25,2.05-.23.37.02.69.17.97.45s.48.77.59,1.46c.11.64.1,1.08-.02,1.32-.12.25-.41.43-.87.55.44.03.74.12.92.27.17.15.29.3.35.44.06.14.15.54.26,1.2l.37,2.15-1.97.33-.46-2.71c-.07-.44-.15-.7-.24-.79s-.28-.11-.57-.06l.62,3.68-2.12.36-1.39-8.16ZM49.5,11.9l.31,1.82c.24-.04.4-.1.48-.18s.1-.3.04-.66l-.08-.45c-.04-.26-.12-.42-.23-.49s-.28-.08-.53-.04Z"/>
          <path class="cls-2" d="M58.08,12.25l-2,.07-.02-.61c-.01-.29-.04-.47-.1-.54-.05-.08-.14-.11-.26-.11-.13,0-.23.06-.29.17-.06.11-.09.27-.08.48.01.28.06.48.14.62.08.14.29.3.63.48.98.53,1.6.98,1.86,1.33.26.36.41.94.44,1.75.02.59-.03,1.03-.16,1.31s-.39.53-.77.73c-.39.2-.85.32-1.37.34-.58.02-1.07-.07-1.49-.27-.42-.2-.69-.47-.83-.8s-.22-.81-.24-1.43l-.02-.54,2-.07.04,1.01c.01.31.05.51.11.59.06.09.16.13.3.12.14,0,.25-.07.31-.18.07-.11.09-.28.09-.5-.02-.49-.1-.8-.23-.95-.14-.14-.49-.38-1.03-.71-.55-.33-.91-.58-1.09-.73-.18-.15-.33-.37-.46-.65-.12-.28-.2-.64-.21-1.08-.02-.63.04-1.1.19-1.4.15-.3.4-.54.76-.72.36-.18.79-.28,1.3-.3.56-.02,1.04.05,1.44.22.4.17.67.38.81.65s.22.73.24,1.39v.33Z"/>
          <path class="cls-2" d="M63.49,10.16l-.85,8.24-2.14-.22.85-8.24,2.14.22Z"/>
          <path class="cls-2" d="M69.6,11.29l-1.69,8.11-1.85-.39-.33-3.91-.77,3.68-1.76-.37,1.69-8.11,1.76.37.42,3.9.76-3.65,1.76.37Z"/>
          <path class="cls-2" d="M75.17,13.13l-.54,1.57-1.21-.42-2.15,6.26-2.04-.7,2.15-6.26-1.2-.41.54-1.57,4.45,1.53Z"/>
          <path class="cls-2" d="M76.17,13.57l3.25,1.53-.71,1.5-1.3-.61-.67,1.42,1.22.57-.67,1.42-1.22-.57-.78,1.65,1.43.67-.71,1.5-3.38-1.59,3.53-7.49Z"/>
          <path class="cls-2" d="M80.67,15.75l1.29.81c.86.54,1.42.94,1.69,1.2.26.26.41.58.43.98.02.39-.16.89-.53,1.49-.34.55-.64.87-.89.97-.25.1-.59.05-1.01-.16.31.32.47.59.5.82.03.23.02.41-.03.56-.05.15-.25.5-.6,1.07l-1.16,1.85-1.69-1.06,1.46-2.33c.24-.38.35-.63.35-.75,0-.13-.13-.27-.38-.43l-1.98,3.16-1.82-1.14,4.4-7.02ZM81.74,18.09l-.98,1.56c.2.13.37.19.48.19.12,0,.27-.16.47-.47l.24-.39c.14-.22.19-.39.16-.51-.04-.12-.16-.24-.37-.38Z"/>
          <path class="cls-2" d="M89.71,22.3l-5.29,6.37-1.45-1.21,1.55-3.61-2.41,2.89-1.38-1.15,5.29-6.37,1.38,1.15-1.46,3.64,2.38-2.87,1.38,1.15Z"/>
          <path class="cls-2" d="M93.37,26.12l-5.24,6.53-1.5-1.61,1.01-1.1-.52-.56-1.18.92-1.51-1.63,6.82-4.82,2.12,2.28ZM88.69,28.9c.61-.72,1.39-1.59,2.33-2.6-1.31.92-2.26,1.6-2.83,2.06l.5.54Z"/>
          <path class="cls-2" d="M97,30.79l-1.33.99-.77-1.02-5.31,3.96-1.29-1.73,5.31-3.96-.76-1.02,1.33-.99,2.81,3.77Z"/>
          <path class="cls-2" d="M98.62,33.46l-7.06,4.32-1.12-1.84,7.06-4.32,1.12,1.84Z"/>
          <path class="cls-2" d="M97.1,41.2c-.75.36-1.29.59-1.62.71-.33.11-.67.14-1.01.08s-.67-.22-.96-.47c-.29-.25-.54-.59-.74-1.01-.19-.4-.3-.79-.32-1.17s.05-.73.22-1.05.4-.57.69-.75c.29-.18.82-.46,1.59-.83l1.28-.61c.75-.36,1.29-.59,1.62-.71.33-.11.67-.14,1.01-.08.35.06.67.22.96.47.29.25.53.59.74,1.01.19.4.3.79.32,1.17.02.38-.05.73-.22,1.05s-.4.57-.69.75-.82.46-1.59.83l-1.28.61ZM98.63,38.09c.35-.17.56-.29.64-.38s.09-.19.03-.31c-.05-.1-.12-.16-.23-.18-.1-.02-.35.07-.73.25l-3.49,1.66c-.43.21-.69.35-.78.44s-.1.19-.03.32c.06.13.16.19.3.17.13-.02.42-.13.86-.34l3.43-1.64Z"/>
          <path class="cls-2" d="M103.51,45.16l-7.89,2.51-.57-1.8,3.25-2.21-3.59,1.14-.55-1.71,7.89-2.51.55,1.71-3.19,2.28,3.55-1.13.55,1.71Z"/>
          <path class="cls-2" d="M104.53,50.34l-7.93,2.67-.39-2.17,1.44-.38-.14-.76-1.49.14-.39-2.19,8.34-.38.55,3.06ZM99.09,50.16c.9-.27,2.03-.58,3.36-.94-1.6.06-2.76.13-3.5.21l.13.73Z"/>
          <path class="cls-2" d="M104.95,54.67l-6.61.45.09,1.31-1.65.11-.23-3.45,8.26-.56.14,2.15Z"/>
        </g>
        <path id="Centre_Logo" data-name="Centre Logo" class="cls-1" d="M47.13,53.08c0-.48-.41-.72-.83-.48-.25.14-.29.39-.29.64,0,1.74,0,3.47,0,5.21,0,.06,0,.12.01.13.38-.02.74-.03,1.11-.05v-3.47c0-.66,0-1.32,0-1.99ZM48.43,58.66v.44c.02.17-.02.38.07.49.31.36.66.69,1.03,1.06v-2h-1.1ZM50.86,58.66c0,.79.04,1.57-.01,2.34-.04.6.06,1.03.73,1.14.06,0,.11.06.2.11.06.02.12.04.19.06v-3.65h-1.1ZM56.02,66.67c0-.59-.26-1.08-.76-1.37-.58-.33-1.2-.59-1.8-.88-.02-.01-.06,0-.1.01.16.19.31.36.44.54.18.26.14.7-.1.85-.31.21-.64.22-.88-.03-.31-.33-.64-.65-1-1-1.4-1.4-2.8-2.8-4.2-4.2-.19-.19-.37-.39-.57-.57-.22-.21-.58-.22-.81-.03-.26.2-.41.56-.2.82.21.27.43.54.67.79.64.69,1.3,1.37,1.94,2.07.17.19.28.41.19.69-.17.52-.79.6-1.13.24-.85-.92-1.71-1.82-2.55-2.75-.17-.19-.28-.45-.39-.7-.17-.39-.09-.81-.08-1.22.04-1.04.01-2.09.01-3.14,0-.95,0-1.9,0-2.86,0-.32-.27-.6-.55-.57-.3.04-.52.15-.52.56.02,2.28,0,4.55,0,6.83,0,.71.17,1.38.49,2,.56,1.08,1.2,2.12,1.76,3.2.47.91,1.14,1.57,2.07,2.02.84.41,1.64.92,2.44,1.42.13.08.25.3.26.46.03.57.01,1.14.01,1.71v1.54h5.35v-.26c0-2.06,0-4.12,0-6.18ZM49.63,66.41c-.46-.14-.57-.26-.57-.61,0-.44.22-.7.61-.7.37,0,.7.32.69.66-.01.35-.32.64-.73.64ZM57.07,44.04c-.15-.22-.33-.26-.56-.26-1.64,0-3.27,0-4.91,0h-.31v10.88h.34c1.63,0,3.25,0,4.88,0,.37,0,.74.1,1.11.15v-10.27c-.21-.19-.42-.32-.55-.51ZM56.58,50.13c-.03.39-.27.62-.73.62-1.05,0-2.11,0-3.16,0-.46,0-.79-.28-.75-.66.05-.42.3-.65.76-.64.62,0,1.24,0,1.89,0,.44,0,.86,0,1.27,0,.41,0,.76.24.72.69ZM56.37,47.43c-.12.08-.27.14-.41.14-.96.01-1.92,0-2.92,0-.25-.02-.49,0-.69-.05-.28-.08-.44-.38-.4-.62.08-.42.25-.61.65-.62,1.1-.02,2.19-.01,3.29,0,.3,0,.59.13.68.43.07.25.08.55-.19.72ZM59.82,43.79c-.11,0-.23.1-.32.18-.2.18-.39.37-.62.61v10.27c.33-.07.62-.18.91-.18,1.7-.02,3.4,0,5.09,0h.32v-10.88c-1.8,0-3.59,0-5.38,0ZM63.67,52.3c-1.15,0-2.29,0-3.44,0-.31,0-.59-.29-.6-.62,0-.31.29-.62.59-.63.27,0,.54,0,.84,0,.89,0,1.75,0,2.61,0,.4,0,.63.23.63.62,0,.39-.23.63-.62.63ZM63.84,49.13c-.17.05-.36.06-.54.06-1.01,0-2.03,0-3.06-.03-.35-.06-.62-.35-.61-.65,0-.31.31-.61.63-.61,1.15,0,2.3,0,3.45,0,.3,0,.55.23.58.51.04.45-.1.63-.45.73ZM64.56,58.66v3.66c.32-.14.61-.26.89-.41.08-.04.14-.15.2-.28v-2.97h-1.09ZM66.52,44.92v10.33c0,.47-.25.72-.72.72-1.94,0-3.87,0-5.81,0-.19,0-.34.03-.45.19-.19.26-.4.51-.59.76-.39.51-.88.62-1.31.07-.15-.2-.28-.41-.44-.61-.2-.25-.41-.43-.79-.42-1.89.03-3.77,0-5.65.02-.47,0-.77-.3-.77-.76.02-2.1,0-4.21,0-6.37v-3.93h-1.54v12.41h7.1c.36,0,.64.1.85.44.88,1.43,2.88,1.39,3.66.04.21-.35.52-.49.93-.49,2.25,0,4.49,0,6.74,0h.33v-12.42h-1.54ZM68.06,58.66h-1.1v2.02c.27-.28.46-.54.71-.72.48-.35.45-.82.39-1.31ZM70.5,53.18c0-.41-.26-.7-.59-.69-.31,0-.52.29-.52.69v5.4h1.12v-2.29c0-1.03,0-2.07,0-3.1ZM72.87,60.1c-.04-2.08-.01-4.16,0-6.24,0-.23-.08-.36-.29-.44-.42-.15-.77.09-.77.55,0,1.99,0,3.98,0,5.97,0,.06-.01.13,0,.19.17.65-.03,1.23-.44,1.71-.83.95-1.71,1.86-2.58,2.77-.3.32-.64.29-.93.06-.31-.25-.29-.67,0-.99.65-.69,1.3-1.38,1.94-2.07.2-.21.39-.42.57-.64.25-.31.26-.63-.07-.93-.27-.24-.63-.23-.9.04-1.9,1.9-3.8,3.79-5.69,5.69-.3.3-.65.26-.93.05-.25-.18-.26-.59-.05-.88.12-.17.27-.33.43-.54-.1.03-.17.05-.22.07-.42.19-.83.38-1.25.57-.82.36-1.22.95-1.21,1.86.02,1.96,0,3.91,0,5.87v.33h5.35c0-1.08,0-2.14,0-3.21,0-.23.06-.4.28-.52,1.08-.61,2.15-1.23,3.26-1.88.23-.23.52-.42.68-.69.73-1.2,1.43-2.41,2.11-3.63.54-.95.72-1.99.7-3.09ZM67.33,66.16c-.16.28-.43.27-.69.24-.23-.03-.53-.39-.48-.63.05-.22.2-.42.35-.6.06-.07.22-.05.37-.08.6.12.72.6.45,1.05ZM72.87,60.1c-.04-2.08-.01-4.16,0-6.24,0-.23-.08-.36-.29-.44-.42-.15-.77.09-.77.55,0,1.99,0,3.98,0,5.97,0,.06-.01.13,0,.19.17.65-.03,1.23-.44,1.71-.83.95-1.71,1.86-2.58,2.77-.3.32-.64.29-.93.06-.31-.25-.29-.67,0-.99.65-.69,1.3-1.38,1.94-2.07.2-.21.39-.42.57-.64.25-.31.26-.63-.07-.93-.27-.24-.63-.23-.9.04-1.9,1.9-3.8,3.79-5.69,5.69-.3.3-.65.26-.93.05-.25-.18-.26-.59-.05-.88.12-.17.27-.33.43-.54-.1.03-.17.05-.22.07-.42.19-.83.38-1.25.57-.82.36-1.22.95-1.21,1.86.02,1.96,0,3.91,0,5.87v.33h5.35c0-1.08,0-2.14,0-3.21,0-.23.06-.4.28-.52,1.08-.61,2.15-1.23,3.26-1.88.23-.23.52-.42.68-.69.73-1.2,1.43-2.41,2.11-3.63.54-.95.72-1.99.7-3.09ZM67.33,66.16c-.16.28-.43.27-.69.24-.23-.03-.53-.39-.48-.63.05-.22.2-.42.35-.6.06-.07.22-.05.37-.08.6.12.72.6.45,1.05ZM70.5,53.18c0-.41-.26-.7-.59-.69-.31,0-.52.29-.52.69v5.4h1.12v-2.29c0-1.03,0-2.07,0-3.1ZM68.06,58.66h-1.1v2.02c.27-.28.46-.54.71-.72.48-.35.45-.82.39-1.31ZM66.52,44.92v10.33c0,.47-.25.72-.72.72-1.94,0-3.87,0-5.81,0-.19,0-.34.03-.45.19-.19.26-.4.51-.59.76-.39.51-.88.62-1.31.07-.15-.2-.28-.41-.44-.61-.2-.25-.41-.43-.79-.42-1.89.03-3.77,0-5.65.02-.47,0-.77-.3-.77-.76.02-2.1,0-4.21,0-6.37v-3.93h-1.54v12.41h7.1c.36,0,.64.1.85.44.88,1.43,2.88,1.39,3.66.04.21-.35.52-.49.93-.49,2.25,0,4.49,0,6.74,0h.33v-12.42h-1.54ZM64.56,58.66v3.66c.32-.14.61-.26.89-.41.08-.04.14-.15.2-.28v-2.97h-1.09ZM59.82,43.79c-.11,0-.23.1-.32.18-.2.18-.39.37-.62.61v10.27c.33-.07.62-.18.91-.18,1.7-.02,3.4,0,5.09,0h.32v-10.88c-1.8,0-3.59,0-5.38,0ZM63.67,52.3c-1.15,0-2.29,0-3.44,0-.31,0-.59-.29-.6-.62,0-.31.29-.62.59-.63.27,0,.54,0,.84,0,.89,0,1.75,0,2.61,0,.4,0,.63.23.63.62,0,.39-.23.63-.62.63ZM63.84,49.13c-.17.05-.36.06-.54.06-1.01,0-2.03,0-3.06-.03-.35-.06-.62-.35-.61-.65,0-.31.31-.61.63-.61,1.15,0,2.3,0,3.45,0,.3,0,.55.23.58.51.04.45-.1.63-.45.73ZM57.07,44.04c-.15-.22-.33-.26-.56-.26-1.64,0-3.27,0-4.91,0h-.31v10.88h.34c1.63,0,3.25,0,4.88,0,.37,0,.74.1,1.11.15v-10.27c-.21-.19-.42-.32-.55-.51ZM56.58,50.13c-.03.39-.27.62-.73.62-1.05,0-2.11,0-3.16,0-.46,0-.79-.28-.75-.66.05-.42.3-.65.76-.64.62,0,1.24,0,1.89,0,.44,0,.86,0,1.27,0,.41,0,.76.24.72.69ZM56.37,47.43c-.12.08-.27.14-.41.14-.96.01-1.92,0-2.92,0-.25-.02-.49,0-.69-.05-.28-.08-.44-.38-.4-.62.08-.42.25-.61.65-.62,1.1-.02,2.19-.01,3.29,0,.3,0,.59.13.68.43.07.25.08.55-.19.72ZM56.02,66.67c0-.59-.26-1.08-.76-1.37-.58-.33-1.2-.59-1.8-.88-.02-.01-.06,0-.1.01.16.19.31.36.44.54.18.26.14.7-.1.85-.31.21-.64.22-.88-.03-.31-.33-.64-.65-1-1-1.4-1.4-2.8-2.8-4.2-4.2-.19-.19-.37-.39-.57-.57-.22-.21-.58-.22-.81-.03-.26.2-.41.56-.2.82.21.27.43.54.67.79.64.69,1.3,1.37,1.94,2.07.17.19.28.41.19.69-.17.52-.79.6-1.13.24-.85-.92-1.71-1.82-2.55-2.75-.17-.19-.28-.45-.39-.7-.17-.39-.09-.81-.08-1.22.04-1.04.01-2.09.01-3.14,0-.95,0-1.9,0-2.86,0-.32-.27-.6-.55-.57-.3.04-.52.15-.52.56.02,2.28,0,4.55,0,6.83,0,.71.17,1.38.49,2,.56,1.08,1.2,2.12,1.76,3.2.47.91,1.14,1.57,2.07,2.02.84.41,1.64.92,2.44,1.42.13.08.25.3.26.46.03.57.01,1.14.01,1.71v1.54h5.35v-.26c0-2.06,0-4.12,0-6.18ZM49.63,66.41c-.46-.14-.57-.26-.57-.61,0-.44.22-.7.61-.7.37,0,.7.32.69.66-.01.35-.32.64-.73.64ZM50.86,58.66c0,.79.04,1.57-.01,2.34-.04.6.06,1.03.73,1.14.06,0,.11.06.2.11.06.02.12.04.19.06v-3.65h-1.1ZM48.43,58.66v.44c.02.17-.02.38.07.49.31.36.66.69,1.03,1.06v-2h-1.1ZM47.13,53.08c0-.48-.41-.72-.83-.48-.25.14-.29.39-.29.64,0,1.74,0,3.47,0,5.21,0,.06,0,.12.01.13.38-.02.74-.03,1.11-.05v-3.47c0-.66,0-1.32,0-1.99ZM47.13,53.08c0-.48-.41-.72-.83-.48-.25.14-.29.39-.29.64,0,1.74,0,3.47,0,5.21,0,.06,0,.12.01.13.38-.02.74-.03,1.11-.05v-3.47c0-.66,0-1.32,0-1.99ZM48.43,58.66v.44c.02.17-.02.38.07.49.31.36.66.69,1.03,1.06v-2h-1.1ZM50.86,58.66c0,.79.04,1.57-.01,2.34-.04.6.06,1.03.73,1.14.06,0,.11.06.2.11.06.02.12.04.19.06v-3.65h-1.1ZM56.02,66.67c0-.59-.26-1.08-.76-1.37-.58-.33-1.2-.59-1.8-.88-.02-.01-.06,0-.1.01.16.19.31.36.44.54.18.26.14.7-.1.85-.31.21-.64.22-.88-.03-.31-.33-.64-.65-1-1-1.4-1.4-2.8-2.8-4.2-4.2-.19-.19-.37-.39-.57-.57-.22-.21-.58-.22-.81-.03-.26.2-.41.56-.2.82.21.27.43.54.67.79.64.69,1.3,1.37,1.94,2.07.17.19.28.41.19.69-.17.52-.79.6-1.13.24-.85-.92-1.71-1.82-2.55-2.75-.17-.19-.28-.45-.39-.7-.17-.39-.09-.81-.08-1.22.04-1.04.01-2.09.01-3.14,0-.95,0-1.9,0-2.86,0-.32-.27-.6-.55-.57-.3.04-.52.15-.52.56.02,2.28,0,4.55,0,6.83,0,.71.17,1.38.49,2,.56,1.08,1.2,2.12,1.76,3.2.47.91,1.14,1.57,2.07,2.02.84.41,1.64.92,2.44,1.42.13.08.25.3.26.46.03.57.01,1.14.01,1.71v1.54h5.35v-.26c0-2.06,0-4.12,0-6.18ZM49.63,66.41c-.46-.14-.57-.26-.57-.61,0-.44.22-.7.61-.7.37,0,.7.32.69.66-.01.35-.32.64-.73.64ZM57.07,44.04c-.15-.22-.33-.26-.56-.26-1.64,0-3.27,0-4.91,0h-.31v10.88h.34c1.63,0,3.25,0,4.88,0,.37,0,.74.1,1.11.15v-10.27c-.21-.19-.42-.32-.55-.51ZM56.58,50.13c-.03.39-.27.62-.73.62-1.05,0-2.11,0-3.16,0-.46,0-.79-.28-.75-.66.05-.42.3-.65.76-.64.62,0,1.24,0,1.89,0,.44,0,.86,0,1.27,0,.41,0,.76.24.72.69ZM56.37,47.43c-.12.08-.27.14-.41.14-.96.01-1.92,0-2.92,0-.25-.02-.49,0-.69-.05-.28-.08-.44-.38-.4-.62.08-.42.25-.61.65-.62,1.1-.02,2.19-.01,3.29,0,.3,0,.59.13.68.43.07.25.08.55-.19.72ZM59.82,43.79c-.11,0-.23.1-.32.18-.2.18-.39.37-.62.61v10.27c.33-.07.62-.18.91-.18,1.7-.02,3.4,0,5.09,0h.32v-10.88c-1.8,0-3.59,0-5.38,0ZM63.67,52.3c-1.15,0-2.29,0-3.44,0-.31,0-.59-.29-.6-.62,0-.31.29-.62.59-.63.27,0,.54,0,.84,0,.89,0,1.75,0,2.61,0,.4,0,.63.23.63.62,0,.39-.23.63-.62.63ZM63.84,49.13c-.17.05-.36.06-.54.06-1.01,0-2.03,0-3.06-.03-.35-.06-.62-.35-.61-.65,0-.31.31-.61.63-.61,1.15,0,2.3,0,3.45,0,.3,0,.55.23.58.51.04.45-.1.63-.45.73ZM64.56,58.66v3.66c.32-.14.61-.26.89-.41.08-.04.14-.15.2-.28v-2.97h-1.09ZM66.52,44.92v10.33c0,.47-.25.72-.72.72-1.94,0-3.87,0-5.81,0-.19,0-.34.03-.45.19-.19.26-.4.51-.59.76-.39.51-.88.62-1.31.07-.15-.2-.28-.41-.44-.61-.2-.25-.41-.43-.79-.42-1.89.03-3.77,0-5.65.02-.47,0-.77-.3-.77-.76.02-2.1,0-4.21,0-6.37v-3.93h-1.54v12.41h7.1c.36,0,.64.1.85.44.88,1.43,2.88,1.39,3.66.04.21-.35.52-.49.93-.49,2.25,0,4.49,0,6.74,0h.33v-12.42h-1.54ZM68.06,58.66h-1.1v2.02c.27-.28.46-.54.71-.72.48-.35.45-.82.39-1.31ZM70.5,53.18c0-.41-.26-.7-.59-.69-.31,0-.52.29-.52.69v5.4h1.12v-2.29c0-1.03,0-2.07,0-3.1ZM72.87,60.1c-.04-2.08-.01-4.16,0-6.24,0-.23-.08-.36-.29-.44-.42-.15-.77.09-.77.55,0,1.99,0,3.98,0,5.97,0,.06-.01.13,0,.19.17.65-.03,1.23-.44,1.71-.83.95-1.71,1.86-2.58,2.77-.3.32-.64.29-.93.06-.31-.25-.29-.67,0-.99.65-.69,1.3-1.38,1.94-2.07.2-.21.39-.42.57-.64.25-.31.26-.63-.07-.93-.27-.24-.63-.23-.9.04-1.9,1.9-3.8,3.79-5.69,5.69-.3.3-.65.26-.93.05-.25-.18-.26-.59-.05-.88.12-.17.27-.33.43-.54-.1.03-.17.05-.22.07-.42.19-.83.38-1.25.57-.82.36-1.22.95-1.21,1.86.02,1.96,0,3.91,0,5.87v.33h5.35c0-1.08,0-2.14,0-3.21,0-.23.06-.4.28-.52,1.08-.61,2.15-1.23,3.26-1.88.23-.23.52-.42.68-.69.73-1.2,1.43-2.41,2.11-3.63.54-.95.72-1.99.7-3.09ZM67.33,66.16c-.16.28-.43.27-.69.24-.23-.03-.53-.39-.48-.63.05-.22.2-.42.35-.6.06-.07.22-.05.37-.08.6.12.72.6.45,1.05ZM72.87,60.1c-.04-2.08-.01-4.16,0-6.24,0-.23-.08-.36-.29-.44-.42-.15-.77.09-.77.55,0,1.99,0,3.98,0,5.97,0,.06-.01.13,0,.19.17.65-.03,1.23-.44,1.71-.83.95-1.71,1.86-2.58,2.77-.3.32-.64.29-.93.06-.31-.25-.29-.67,0-.99.65-.69,1.3-1.38,1.94-2.07.2-.21.39-.42.57-.64.25-.31.26-.63-.07-.93-.27-.24-.63-.23-.9.04-1.9,1.9-3.8,3.79-5.69,5.69-.3.3-.65.26-.93.05-.25-.18-.26-.59-.05-.88.12-.17.27-.33.43-.54-.1.03-.17.05-.22.07-.42.19-.83.38-1.25.57-.82.36-1.22.95-1.21,1.86.02,1.96,0,3.91,0,5.87v.33h5.35c0-1.08,0-2.14,0-3.21,0-.23.06-.4.28-.52,1.08-.61,2.15-1.23,3.26-1.88.23-.23.52-.42.68-.69.73-1.2,1.43-2.41,2.11-3.63.54-.95.72-1.99.7-3.09ZM67.33,66.16c-.16.28-.43.27-.69.24-.23-.03-.53-.39-.48-.63.05-.22.2-.42.35-.6.06-.07.22-.05.37-.08.6.12.72.6.45,1.05ZM70.5,53.18c0-.41-.26-.7-.59-.69-.31,0-.52.29-.52.69v5.4h1.12v-2.29c0-1.03,0-2.07,0-3.1ZM68.06,58.66h-1.1v2.02c.27-.28.46-.54.71-.72.48-.35.45-.82.39-1.31ZM66.52,44.92v10.33c0,.47-.25.72-.72.72-1.94,0-3.87,0-5.81,0-.19,0-.34.03-.45.19-.19.26-.4.51-.59.76-.39.51-.88.62-1.31.07-.15-.2-.28-.41-.44-.61-.2-.25-.41-.43-.79-.42-1.89.03-3.77,0-5.65.02-.47,0-.77-.3-.77-.76.02-2.1,0-4.21,0-6.37v-3.93h-1.54v12.41h7.1c.36,0,.64.1.85.44.88,1.43,2.88,1.39,3.66.04.21-.35.52-.49.93-.49,2.25,0,4.49,0,6.74,0h.33v-12.42h-1.54ZM64.56,58.66v3.66c.32-.14.61-.26.89-.41.08-.04.14-.15.2-.28v-2.97h-1.09ZM59.82,43.79c-.11,0-.23.1-.32.18-.2.18-.39.37-.62.61v10.27c.33-.07.62-.18.91-.18,1.7-.02,3.4,0,5.09,0h.32v-10.88c-1.8,0-3.59,0-5.38,0ZM63.67,52.3c-1.15,0-2.29,0-3.44,0-.31,0-.59-.29-.6-.62,0-.31.29-.62.59-.63.27,0,.54,0,.84,0,.89,0,1.75,0,2.61,0,.4,0,.63.23.63.62,0,.39-.23.63-.62.63ZM63.84,49.13c-.17.05-.36.06-.54.06-1.01,0-2.03,0-3.06-.03-.35-.06-.62-.35-.61-.65,0-.31.31-.61.63-.61,1.15,0,2.3,0,3.45,0,.3,0,.55.23.58.51.04.45-.1.63-.45.73ZM57.07,44.04c-.15-.22-.33-.26-.56-.26-1.64,0-3.27,0-4.91,0h-.31v10.88h.34c1.63,0,3.25,0,4.88,0,.37,0,.74.1,1.11.15v-10.27c-.21-.19-.42-.32-.55-.51ZM56.58,50.13c-.03.39-.27.62-.73.62-1.05,0-2.11,0-3.16,0-.46,0-.79-.28-.75-.66.05-.42.3-.65.76-.64.62,0,1.24,0,1.89,0,.44,0,.86,0,1.27,0,.41,0,.76.24.72.69ZM56.37,47.43c-.12.08-.27.14-.41.14-.96.01-1.92,0-2.92,0-.25-.02-.49,0-.69-.05-.28-.08-.44-.38-.4-.62.08-.42.25-.61.65-.62,1.1-.02,2.19-.01,3.29,0,.3,0,.59.13.68.43.07.25.08.55-.19.72ZM56.02,66.67c0-.59-.26-1.08-.76-1.37-.58-.33-1.2-.59-1.8-.88-.02-.01-.06,0-.1.01.16.19.31.36.44.54.18.26.14.7-.1.85-.31.21-.64.22-.88-.03-.31-.33-.64-.65-1-1-1.4-1.4-2.8-2.8-4.2-4.2-.19-.19-.37-.39-.57-.57-.22-.21-.58-.22-.81-.03-.26.2-.41.56-.2.82.21.27.43.54.67.79.64.69,1.3,1.37,1.94,2.07.17.19.28.41.19.69-.17.52-.79.6-1.13.24-.85-.92-1.71-1.82-2.55-2.75-.17-.19-.28-.45-.39-.7-.17-.39-.09-.81-.08-1.22.04-1.04.01-2.09.01-3.14,0-.95,0-1.9,0-2.86,0-.32-.27-.6-.55-.57-.3.04-.52.15-.52.56.02,2.28,0,4.55,0,6.83,0,.71.17,1.38.49,2,.56,1.08,1.2,2.12,1.76,3.2.47.91,1.14,1.57,2.07,2.02.84.41,1.64.92,2.44,1.42.13.08.25.3.26.46.03.57.01,1.14.01,1.71v1.54h5.35v-.26c0-2.06,0-4.12,0-6.18ZM49.63,66.41c-.46-.14-.57-.26-.57-.61,0-.44.22-.7.61-.7.37,0,.7.32.69.66-.01.35-.32.64-.73.64ZM50.86,58.66c0,.79.04,1.57-.01,2.34-.04.6.06,1.03.73,1.14.06,0,.11.06.2.11.06.02.12.04.19.06v-3.65h-1.1ZM48.43,58.66v.44c.02.17-.02.38.07.49.31.36.66.69,1.03,1.06v-2h-1.1ZM47.13,53.08c0-.48-.41-.72-.83-.48-.25.14-.29.39-.29.64,0,1.74,0,3.47,0,5.21,0,.06,0,.12.01.13.38-.02.74-.03,1.11-.05v-3.47c0-.66,0-1.32,0-1.99ZM47.13,53.08c0-.48-.41-.72-.83-.48-.25.14-.29.39-.29.64,0,1.74,0,3.47,0,5.21,0,.06,0,.12.01.13.38-.02.74-.03,1.11-.05v-3.47c0-.66,0-1.32,0-1.99ZM48.43,58.66v.44c.02.17-.02.38.07.49.31.36.66.69,1.03,1.06v-2h-1.1ZM50.86,58.66c0,.79.04,1.57-.01,2.34-.04.6.06,1.03.73,1.14.06,0,.11.06.2.11.06.02.12.04.19.06v-3.65h-1.1ZM56.02,66.67c0-.59-.26-1.08-.76-1.37-.58-.33-1.2-.59-1.8-.88-.02-.01-.06,0-.1.01.16.19.31.36.44.54.18.26.14.7-.1.85-.31.21-.64.22-.88-.03-.31-.33-.64-.65-1-1-1.4-1.4-2.8-2.8-4.2-4.2-.19-.19-.37-.39-.57-.57-.22-.21-.58-.22-.81-.03-.26.2-.41.56-.2.82.21.27.43.54.67.79.64.69,1.3,1.37,1.94,2.07.17.19.28.41.19.69-.17.52-.79.6-1.13.24-.85-.92-1.71-1.82-2.55-2.75-.17-.19-.28-.45-.39-.7-.17-.39-.09-.81-.08-1.22.04-1.04.01-2.09.01-3.14,0-.95,0-1.9,0-2.86,0-.32-.27-.6-.55-.57-.3.04-.52.15-.52.56.02,2.28,0,4.55,0,6.83,0,.71.17,1.38.49,2,.56,1.08,1.2,2.12,1.76,3.2.47.91,1.14,1.57,2.07,2.02.84.41,1.64.92,2.44,1.42.13.08.25.3.26.46.03.57.01,1.14.01,1.71v1.54h5.35v-.26c0-2.06,0-4.12,0-6.18ZM49.63,66.41c-.46-.14-.57-.26-.57-.61,0-.44.22-.7.61-.7.37,0,.7.32.69.66-.01.35-.32.64-.73.64ZM57.07,44.04c-.15-.22-.33-.26-.56-.26-1.64,0-3.27,0-4.91,0h-.31v10.88h.34c1.63,0,3.25,0,4.88,0,.37,0,.74.1,1.11.15v-10.27c-.21-.19-.42-.32-.55-.51ZM56.58,50.13c-.03.39-.27.62-.73.62-1.05,0-2.11,0-3.16,0-.46,0-.79-.28-.75-.66.05-.42.3-.65.76-.64.62,0,1.24,0,1.89,0,.44,0,.86,0,1.27,0,.41,0,.76.24.72.69ZM56.37,47.43c-.12.08-.27.14-.41.14-.96.01-1.92,0-2.92,0-.25-.02-.49,0-.69-.05-.28-.08-.44-.38-.4-.62.08-.42.25-.61.65-.62,1.1-.02,2.19-.01,3.29,0,.3,0,.59.13.68.43.07.25.08.55-.19.72ZM59.82,43.79c-.11,0-.23.1-.32.18-.2.18-.39.37-.62.61v10.27c.33-.07.62-.18.91-.18,1.7-.02,3.4,0,5.09,0h.32v-10.88c-1.8,0-3.59,0-5.38,0ZM63.67,52.3c-1.15,0-2.29,0-3.44,0-.31,0-.59-.29-.6-.62,0-.31.29-.62.59-.63.27,0,.54,0,.84,0,.89,0,1.75,0,2.61,0,.4,0,.63.23.63.62,0,.39-.23.63-.62.63ZM63.84,49.13c-.17.05-.36.06-.54.06-1.01,0-2.03,0-3.06-.03-.35-.06-.62-.35-.61-.65,0-.31.31-.61.63-.61,1.15,0,2.3,0,3.45,0,.3,0,.55.23.58.51.04.45-.1.63-.45.73ZM64.56,58.66v3.66c.32-.14.61-.26.89-.41.08-.04.14-.15.2-.28v-2.97h-1.09ZM66.52,44.92v10.33c0,.47-.25.72-.72.72-1.94,0-3.87,0-5.81,0-.19,0-.34.03-.45.19-.19.26-.4.51-.59.76-.39.51-.88.62-1.31.07-.15-.2-.28-.41-.44-.61-.2-.25-.41-.43-.79-.42-1.89.03-3.77,0-5.65.02-.47,0-.77-.3-.77-.76.02-2.1,0-4.21,0-6.37v-3.93h-1.54v12.41h7.1c.36,0,.64.1.85.44.88,1.43,2.88,1.39,3.66.04.21-.35.52-.49.93-.49,2.25,0,4.49,0,6.74,0h.33v-12.42h-1.54ZM68.06,58.66h-1.1v2.02c.27-.28.46-.54.71-.72.48-.35.45-.82.39-1.31ZM70.5,53.18c0-.41-.26-.7-.59-.69-.31,0-.52.29-.52.69v5.4h1.12v-2.29c0-1.03,0-2.07,0-3.1ZM72.87,60.1c-.04-2.08-.01-4.16,0-6.24,0-.23-.08-.36-.29-.44-.42-.15-.77.09-.77.55,0,1.99,0,3.98,0,5.97,0,.06-.01.13,0,.19.17.65-.03,1.23-.44,1.71-.83.95-1.71,1.86-2.58,2.77-.3.32-.64.29-.93.06-.31-.25-.29-.67,0-.99.65-.69,1.3-1.38,1.94-2.07.2-.21.39-.42.57-.64.25-.31.26-.63-.07-.93-.27-.24-.63-.23-.9.04-1.9,1.9-3.8,3.79-5.69,5.69-.3.3-.65.26-.93.05-.25-.18-.26-.59-.05-.88.12-.17.27-.33.43-.54-.1.03-.17.05-.22.07-.42.19-.83.38-1.25.57-.82.36-1.22.95-1.21,1.86.02,1.96,0,3.91,0,5.87v.33h5.35c0-1.08,0-2.14,0-3.21,0-.23.06-.4.28-.52,1.08-.61,2.15-1.23,3.26-1.88.23-.23.52-.42.68-.69.73-1.2,1.43-2.41,2.11-3.63.54-.95.72-1.99.7-3.09ZM67.33,66.16c-.16.28-.43.27-.69.24-.23-.03-.53-.39-.48-.63.05-.22.2-.42.35-.6.06-.07.22-.05.37-.08.6.12.72.6.45,1.05ZM72.87,60.1c-.04-2.08-.01-4.16,0-6.24,0-.23-.08-.36-.29-.44-.42-.15-.77.09-.77.55,0,1.99,0,3.98,0,5.97,0,.06-.01.13,0,.19.17.65-.03,1.23-.44,1.71-.83.95-1.71,1.86-2.58,2.77-.3.32-.64.29-.93.06-.31-.25-.29-.67,0-.99.65-.69,1.3-1.38,1.94-2.07.2-.21.39-.42.57-.64.25-.31.26-.63-.07-.93-.27-.24-.63-.23-.9.04-1.9,1.9-3.8,3.79-5.69,5.69-.3.3-.65.26-.93.05-.25-.18-.26-.59-.05-.88.12-.17.27-.33.43-.54-.1.03-.17.05-.22.07-.42.19-.83.38-1.25.57-.82.36-1.22.95-1.21,1.86.02,1.96,0,3.91,0,5.87v.33h5.35c0-1.08,0-2.14,0-3.21,0-.23.06-.4.28-.52,1.08-.61,2.15-1.23,3.26-1.88.23-.23.52-.42.68-.69.73-1.2,1.43-2.41,2.11-3.63.54-.95.72-1.99.7-3.09ZM67.33,66.16c-.16.28-.43.27-.69.24-.23-.03-.53-.39-.48-.63.05-.22.2-.42.35-.6.06-.07.22-.05.37-.08.6.12.72.6.45,1.05ZM70.5,56.28c0-1.03,0-2.07,0-3.1,0-.41-.26-.7-.59-.69-.31,0-.52.29-.52.69v5.4h1.12v-2.29ZM66.96,58.66v2.02c.27-.28.46-.54.71-.72.48-.35.45-.82.39-1.31h-1.1ZM67.73,57.34h.33v-12.42h-1.54v10.33c0,.47-.25.72-.72.72-1.94,0-3.87,0-5.81,0-.19,0-.34.03-.45.19-.19.26-.4.51-.59.76-.39.51-.88.62-1.31.07-.15-.2-.28-.41-.44-.61-.2-.25-.41-.43-.79-.42-1.89.03-3.77,0-5.65.02-.47,0-.77-.3-.77-.76.02-2.1,0-4.21,0-6.37v-3.93h-1.54v12.41h7.1c.36,0,.64.1.85.44.88,1.43,2.88,1.39,3.66.04.21-.35.52-.49.93-.49,2.25,0,4.49,0,6.74,0ZM65.45,61.91c.08-.04.14-.15.2-.28v-2.97h-1.09v3.66c.32-.14.61-.26.89-.41ZM64.88,54.66h.32v-10.88c-1.8,0-3.59,0-5.38,0-.11,0-.23.1-.32.18-.2.18-.39.37-.62.61v10.27c.33-.07.62-.18.91-.18,1.7-.02,3.4,0,5.09,0ZM60.26,47.89c1.15,0,2.3,0,3.45,0,.3,0,.55.23.58.51.04.45-.1.63-.45.73-.17.05-.36.06-.54.06-1.01,0-2.03,0-3.06-.03-.35-.06-.62-.35-.61-.65,0-.31.31-.61.63-.61ZM60.22,51.06c.27,0,.54,0,.84,0,.89,0,1.75,0,2.61,0,.4,0,.63.23.63.62,0,.39-.23.63-.62.63-1.15,0-2.29,0-3.44,0-.31,0-.59-.29-.6-.62,0-.31.29-.62.59-.63ZM56.51,54.67c.37,0,.74.1,1.11.15v-10.27c-.21-.19-.42-.32-.55-.51-.15-.22-.33-.26-.56-.26-1.64,0-3.27,0-4.91,0h-.31v10.88h.34c1.63,0,3.25,0,4.88,0ZM51.94,46.9c.08-.42.25-.61.65-.62,1.1-.02,2.19-.01,3.29,0,.3,0,.59.13.68.43.07.25.08.55-.19.72-.12.08-.27.14-.41.14-.96.01-1.92,0-2.92,0-.25-.02-.49,0-.69-.05-.28-.08-.44-.38-.4-.62ZM51.94,50.08c.05-.42.3-.65.76-.64.62,0,1.24,0,1.89,0,.44,0,.86,0,1.27,0,.41,0,.76.24.72.69-.03.39-.27.62-.73.62-1.05,0-2.11,0-3.16,0-.46,0-.79-.28-.75-.66ZM55.26,65.3c-.58-.33-1.2-.59-1.8-.88-.02-.01-.06,0-.1.01.16.19.31.36.44.54.18.26.14.7-.1.85-.31.21-.64.22-.88-.03-.31-.33-.64-.65-1-1-1.4-1.4-2.8-2.8-4.2-4.2-.19-.19-.37-.39-.57-.57-.22-.21-.58-.22-.81-.03-.26.2-.41.56-.2.82.21.27.43.54.67.79.64.69,1.3,1.37,1.94,2.07.17.19.28.41.19.69-.17.52-.79.6-1.13.24-.85-.92-1.71-1.82-2.55-2.75-.17-.19-.28-.45-.39-.7-.17-.39-.09-.81-.08-1.22.04-1.04.01-2.09.01-3.14,0-.95,0-1.9,0-2.86,0-.32-.27-.6-.55-.57-.3.04-.52.15-.52.56.02,2.28,0,4.55,0,6.83,0,.71.17,1.38.49,2,.56,1.08,1.2,2.12,1.76,3.2.47.91,1.14,1.57,2.07,2.02.84.41,1.64.92,2.44,1.42.13.08.25.3.26.46.03.57.01,1.14.01,1.71v1.54h5.35v-.26c0-2.06,0-4.12,0-6.18,0-.59-.26-1.08-.76-1.37ZM49.63,66.41c-.46-.14-.57-.26-.57-.61,0-.44.22-.7.61-.7.37,0,.7.32.69.66-.01.35-.32.64-.73.64ZM51.57,62.14c.06,0,.11.06.2.11.06.02.12.04.19.06v-3.65h-1.1c0,.79.04,1.57-.01,2.34-.04.6.06,1.03.73,1.14ZM49.53,60.66v-2h-1.1v.44c.02.17-.02.38.07.49.31.36.66.69,1.03,1.06ZM47.13,58.54v-3.47c0-.66,0-1.32,0-1.99,0-.48-.41-.72-.83-.48-.25.14-.29.39-.29.64,0,1.74,0,3.47,0,5.21,0,.06,0,.12.01.13.38-.02.74-.03,1.11-.05ZM57.5,23.14c-18.87,0-34.17,15.3-34.17,34.17s15.3,34.17,34.17,34.17,34.17-15.3,34.17-34.17-15.3-34.17-34.17-34.17ZM83.01,70.86l-.16.13c-1.41,1.16-3.99,2.77-4.01,2.79l-.22-.19.65-1.65c.25-.69.45-2.29.52-4.27.15-4.35.82-6.49,1.03-7.04l.29.08c-.01.05-.01.12-.01.19,0,.33.1.86.32,2.03,0,0,.36,1.95.36,1.96.11.72.15,1.4.15,2.04,0,1.43-.26,2.61-.79,3.49-.16.2-.24.35-.29.47.12-.13.28-.31.47-.6l.15-.24c.65-.99,2.37-3.6,3.37-4.5,1.08-.96,2.04-2.49,2.62-4.19l.3.03c.53,5.14-3.17,8.16-4.75,9.46ZM86.73,52.34v-.41l.3-.04c1.32,4.47.51,8.76-2.3,12.07-.78.91-1.64,2.34-1.65,2.35l-.28-.11c.41-1.62-.53-4.35-1.03-5.82l-.18-.51c-.43-1.32-1.08-4.65-1.06-6.37l.31-.03c.15.58.33.89.93,1.87l1.03,1.71c1.04,1.8,1.26,3.53,1.26,4.67,0,.55-.05.93-.09,1.15.18-.64.32-1.55.4-2.09l.04-.3c.11-.71.89-2.66,1.47-4.08l.55-1.42c.21-.73.31-1.59.31-2.63ZM83.88,43.67c2.41,2.99,2.95,6.43,1.62,10.22-.61,1.75-1.1,3.96-1.1,3.98l-.31-.02c-.01-.12-.42-1.2-.94-2.18-.29-.55-1.16-1.77-1.94-2.84l-1.26-1.81c-.58-.96-1.22-2.55-1.25-3.63l.29-.08c.26.47,1.14,1.29,2.24,2.33,0,0,.84.79.84.8,1.36,1.27,1.8,3.24,1.98,4.09-.08-.87-.25-2.88-.25-2.88l.23-3.95.09-1.1c.01-.11.02-.28.02-.5,0-.51-.08-1.29-.52-2.27l.25-.17ZM79.47,39.24c4.11,2.31,3.86,6.07,3.72,8.1-.16,2.35.07,2.96.08,2.96l-.24.18-.77-.96c-.24-.34-1.06-1.03-1.93-1.75-1-.86-2.06-1.74-2.52-2.34l-.31-.39c-.69-.84-1.33-1.62-1.58-3.42l.29-.09c.54,1.06,2.02,2.16,3.53,3.17,1.21.82,1.95,1.97,2.3,2.61-.03-.09-.08-.2-.1-.25-.42-.9-.73-2.29-1-3.52l-.23-1.01c-.31-1.25-.45-1.5-1.44-3.09l.21-.22ZM73.31,36.31c2.29.65,4.35,1.98,5.38,3.48,1.04,1.52,1.59,4.02,1.61,4.13l-.25.13-1.12-.89-1.48-1.2c-.8-.82-2.52-3.36-2.79-3.8-.22-.36-.65-.94-1.49-1.59l.14-.26ZM42.36,53.32c.23-.82,1.28-1.56,2.54-1.14.51-.83,1.25-1.15,2.23-.94v-1.44c0-1.81,0-3.62,0-5.43,0-.5.31-.81.77-.79.62.03,1.24,0,1.86,0,.08,0,.16-.01.24-.02-.04-.42-.01-.79.36-1.04,2.28,0,4.56,0,6.88.02.35.11.6.28.77.56.14.21.33.25.44.06.19-.32.5-.47.8-.64,2.28,0,4.56,0,6.88.02.49.23.37.66.41,1.03.7,0,1.38.03,2.06,0,.49-.03.79.3.78.8,0,2.17,0,4.35,0,6.52v.34c.99-.22,1.72.12,2.18.86.45,0,.83-.05,1.19,0,.69.11,1.14.55,1.41,1.18,0,2.67,0,5.35-.02,8.06-.08.7-.25,1.35-.56,1.93-.66,1.25-1.34,2.47-2.03,3.7-.37.67-.85,1.25-1.5,1.65-.95.58-1.94,1.1-2.91,1.65,0,1.05,0,2.09,0,3.12,0,.37-.06.71-.37.95-2.38,0-4.77,0-7.19-.02-.3-.14-.4-.34-.4-.63,0-2.38-.02-4.76.01-7.15.01-1.13.56-1.99,1.56-2.52.8-.42,1.64-.77,2.45-1.15v-4.26c-.66,0-1.3,0-1.94,0-.11,0-.25.1-.32.19-.32.46-.75.76-1.24.98-1.38.63-3.01.33-4.01-.81-.28-.32-.54-.39-.91-.38-.5.02-1,0-1.5,0v4.25c.82.39,1.65.74,2.45,1.16,1.02.53,1.56,1.4,1.58,2.54.03,2.34,0,4.68.02,7.02,0,.34-.11.58-.38.76-2.38,0-4.77,0-7.19-.02-.36-.21-.39-.53-.39-.85,0-1.07,0-2.13,0-3.2-.84-.47-1.68-.93-2.52-1.4-.88-.49-1.53-1.2-1.99-2.1-.36-.7-.8-1.36-1.17-2.06-.34-.64-.68-1.29-.96-1.96-.18-.44-.26-.93-.38-1.39,0-2.67,0-5.35.02-8.06ZM41.07,36.72l.14.25c-.66.55-1.15,1.1-1.45,1.64-.25.44-1.91,3.02-2.69,3.86l-1.44,1.23-1.1.94-.26-.13c.02-.1.51-2.63,1.5-4.18.99-1.52,3.02-2.91,5.31-3.61ZM34.97,39.82l.21.21c-.96,1.61-1.09,1.86-1.38,3.12l-.21,1.07c-.25,1.21-.52,2.6-.91,3.48-.03.1-.04.12-.07.2.36-.67,1.08-1.8,2.22-2.6,1.49-1.06,2.93-2.18,3.46-3.27l.29.09c-.21,1.81-.84,2.61-1.5,3.46l-.31.4c-.44.6-1.47,1.5-2.46,2.37-.85.76-1.66,1.48-1.9,1.82l-.75.99-.24-.18s.23-.63.01-2.98c-.19-2.01-.54-5.75,3.54-8.18ZM30.65,44.35l.25.15c-.36.93-.45,1.66-.45,2.17,0,.28.02.49.04.62l.11,1.17.31,3.87s-.16,2.6-.22,3.09c.01-.08.03-.19.03-.19.15-.77.56-2.84,1.9-4.17l.78-.77c1.1-1.08,1.96-1.93,2.23-2.42l.28.08c0,1.08-.6,2.69-1.16,3.65l-1.2,1.82c-.76,1.1-1.61,2.35-1.88,2.92-.49.98-.88,2.07-.89,2.19l-.3.03s-.55-2.22-1.2-3.94c-1.41-3.79-.95-7.24,1.38-10.27ZM27.71,52.63l.3.04c0,1.6.22,2.5.39,3.03l.56,1.36c.62,1.42,1.45,3.37,1.58,4.1l.03.22c.1.53.27,1.51.47,2.18-.04-.24-.12-.71-.12-1.38,0-1.15.21-2.79,1.14-4.5l.98-1.73c.58-1,.75-1.31.9-1.92l.3.03c.07,1.74-.51,5.08-.91,6.4l-.15.5c-.46,1.49-1.33,4.24-.89,5.85l-.28.12s-.9-1.41-1.7-2.3c-2.89-3.24-3.81-7.51-2.59-12.01ZM27.19,62.18l.29-.04c.63,1.66,1.64,3.2,2.73,4.12,1.03.87,2.81,3.44,3.47,4.41l.16.23c.2.29.36.46.5.6-.05-.13-.14-.29-.33-.49-.57-.91-.86-2.16-.86-3.7,0-.56.04-1.16.12-1.81l.31-1.93c.19-1.15.28-1.69.28-2.03,0-.09,0-.16-.01-.23l.29-.09c.21.54.93,2.66,1.18,7.02.12,1.97.35,3.56.62,4.26l.69,1.62-.22.19s-2.64-1.55-4.08-2.68l-.16-.12c-1.61-1.27-5.38-4.2-4.97-9.34ZM29.38,70.66l.26-.14c1.99,2.34,2.55,2.6,3.64,3.14l.2.11c1.27.63,4.73,2.6,6.18,3.8t-.01-.01c-2.09-1.84-2.7-4.43-2.84-6.27-.24-1.76-.63-3.3-.73-3.47l.21-.2c.94.54,1.97,2.63,2.17,3.15l1.8,4.99c.22.56,1.34,2.95,2.15,3.53l-.13.26s-2.09-.59-3.63-.79c-.71-.09-6.95-1.12-9.27-8.1ZM34.21,78.37l.23-.21c1.66,1.37,3.87,2.02,6.55,1.94,1.04-.03,3.34.29,4.91.54-.11-.03-.23-.08-.32-.11l-.85-.31-.12-.05c-.58-.29-1.81-.87-3.27-4.08l-.47-1.06c-.16-.41-.28-.67-.47-.84l.12-.26c.58.08,1.51.97,2.34,1.84l.1.1.26.29c.74.82,2.7,2.98,3.86,3.58,1.33.69,2.01,1.04,2.96,1.2v.3s-4.18.88-5.71,1.33c-1.93.57-7.14.31-10.12-4.2ZM76.07,83.05c-2.32,2.23-4.93,3.13-7.7,2.69-1.36-.22-2.91-1.01-4.66-2.35l-.2-.17c-.61-.53-2.1-1.82-4.55-1.28,3.92,1.66,6.61,4.73,6.65,4.78l.1.11-1.26,1.21-.11-.12c-.68-.82-4-4.35-6.59-5.57,0,0-.02,0-.03-.01,0,0,0,0,0,0-2.56,1.28-5.8,4.9-6.47,5.73l-.1.13-1.29-1.18.09-.11s2.65-3.18,6.52-4.94c-2.46-.46-3.91.85-4.51,1.39,0,0-.2.18-.22.19-1.7,1.38-3.24,2.19-4.57,2.45-2.78.52-5.39-.32-7.78-2.49,0,0-.01-.01-.01-.02l.19-.23c1.81,1.23,4.87.72,5.21.65.74-.14,1.9-.63,3.65-1.38,0,0,2.99-1.26,3-1.26,2.23-.62,4.38-.4,6.29.2,1.9-.66,4.04-.92,6.3-.36l3.06,1.19c1.74.69,2.89,1.15,3.63,1.27.34.06,3.42.5,5.2-.78l.19.23s0,.01-.01.02ZM71.11,82.23c-1.55-.41-5.72-1.18-5.75-1.19v-.3c.93-.19,1.58-.51,2.94-1.28,1.12-.62,3.02-2.81,3.74-3.64l.3-.33.11-.12c.8-.88,1.7-1.79,2.27-1.88l.12.26c-.18.16-.29.44-.44.85l-.45,1.07c-1.4,3.25-2.65,3.89-3.17,4.15l-.13.07-.83.33c-.1.03-.22.08-.33.12,1.59-.31,3.87-.68,4.91-.67,2.67.02,4.86-.68,6.5-2.09l.22.19c-2.85,4.6-8.07,4.99-10.01,4.46ZM76.7,78.28c-1.53.24-3.59.88-3.61.88l-.13-.26c.78-.58,1.84-2.99,2.06-3.57l1.69-5.04c.19-.52,1.17-2.64,2.09-3.22l.22.21c-.11.18-.45,1.7-.65,3.47-.1,1.84-.65,4.43-2.69,6.34,1.47-1.25,4.83-3.27,6.06-3.94l.2-.1c1.1-.58,1.61-.85,3.57-3.25l.26.14c-2.15,7.03-8.38,8.22-9.07,8.33ZM63.73,65.77c-.3.3-.65.26-.93.05-.25-.18-.26-.59-.05-.88.12-.17.27-.33.43-.54-.1.03-.17.05-.22.07-.42.19-.83.38-1.25.57-.82.36-1.22.95-1.21,1.86.02,1.96,0,3.91,0,5.87v.33h5.35c0-1.08,0-2.14,0-3.21,0-.23.06-.4.28-.52,1.08-.61,2.15-1.23,3.26-1.88.23-.23.52-.42.68-.69.73-1.2,1.43-2.41,2.11-3.63.54-.95.72-1.99.7-3.09-.04-2.08-.01-4.16,0-6.24,0-.23-.08-.36-.29-.44-.42-.15-.77.09-.77.55,0,1.99,0,3.98,0,5.97,0,.06-.01.13,0,.19.17.65-.03,1.23-.44,1.71-.83.95-1.71,1.86-2.58,2.77-.3.32-.64.29-.93.06-.31-.25-.29-.67,0-.99.65-.69,1.3-1.38,1.94-2.07.2-.21.39-.42.57-.64.25-.31.26-.63-.07-.93-.27-.24-.63-.23-.9.04-1.9,1.9-3.8,3.79-5.69,5.69ZM67.33,66.16c-.16.28-.43.27-.69.24-.23-.03-.53-.39-.48-.63.05-.22.2-.42.35-.6.06-.07.22-.05.37-.08.6.12.72.6.45,1.05ZM70.5,56.28c0-1.03,0-2.07,0-3.1,0-.41-.26-.7-.59-.69-.31,0-.52.29-.52.69v5.4h1.12v-2.29ZM66.96,58.66v2.02c.27-.28.46-.54.71-.72.48-.35.45-.82.39-1.31h-1.1ZM56.4,57.77c.88,1.43,2.88,1.39,3.66.04.21-.35.52-.49.93-.49,2.25,0,4.49,0,6.74,0h.33v-12.42h-1.54v10.33c0,.47-.25.72-.72.72-1.94,0-3.87,0-5.81,0-.19,0-.34.03-.45.19-.19.26-.4.51-.59.76-.39.51-.88.62-1.31.07-.15-.2-.28-.41-.44-.61-.2-.25-.41-.43-.79-.42-1.89.03-3.77,0-5.65.02-.47,0-.77-.3-.77-.76.02-2.1,0-4.21,0-6.37v-3.93h-1.54v12.41h7.1c.36,0,.64.1.85.44ZM65.65,61.63v-2.97h-1.09v3.66c.32-.14.61-.26.89-.41.08-.04.14-.15.2-.28ZM64.88,54.66h.32v-10.88c-1.8,0-3.59,0-5.38,0-.11,0-.23.1-.32.18-.2.18-.39.37-.62.61v10.27c.33-.07.62-.18.91-.18,1.7-.02,3.4,0,5.09,0ZM60.26,47.89c1.15,0,2.3,0,3.45,0,.3,0,.55.23.58.51.04.45-.1.63-.45.73-.17.05-.36.06-.54.06-1.01,0-2.03,0-3.06-.03-.35-.06-.62-.35-.61-.65,0-.31.31-.61.63-.61ZM60.22,51.06c.27,0,.54,0,.84,0,.89,0,1.75,0,2.61,0,.4,0,.63.23.63.62,0,.39-.23.63-.62.63-1.15,0-2.29,0-3.44,0-.31,0-.59-.29-.6-.62,0-.31.29-.62.59-.63ZM56.51,54.67c.37,0,.74.1,1.11.15v-10.27c-.21-.19-.42-.32-.55-.51-.15-.22-.33-.26-.56-.26-1.64,0-3.27,0-4.91,0h-.31v10.88h.34c1.63,0,3.25,0,4.88,0ZM51.94,46.9c.08-.42.25-.61.65-.62,1.1-.02,2.19-.01,3.29,0,.3,0,.59.13.68.43.07.25.08.55-.19.72-.12.08-.27.14-.41.14-.96.01-1.92,0-2.92,0-.25-.02-.49,0-.69-.05-.28-.08-.44-.38-.4-.62ZM51.94,50.08c.05-.42.3-.65.76-.64.62,0,1.24,0,1.89,0,.44,0,.86,0,1.27,0,.41,0,.76.24.72.69-.03.39-.27.62-.73.62-1.05,0-2.11,0-3.16,0-.46,0-.79-.28-.75-.66ZM43.65,60.76c0,.71.17,1.38.49,2,.56,1.08,1.2,2.12,1.76,3.2.47.91,1.14,1.57,2.07,2.02.84.41,1.64.92,2.44,1.42.13.08.25.3.26.46.03.57.01,1.14.01,1.71v1.54h5.35v-.26c0-2.06,0-4.12,0-6.18,0-.59-.26-1.08-.76-1.37-.58-.33-1.2-.59-1.8-.88-.02-.01-.06,0-.1.01.16.19.31.36.44.54.18.26.14.7-.1.85-.31.21-.64.22-.88-.03-.31-.33-.64-.65-1-1-1.4-1.4-2.8-2.8-4.2-4.2-.19-.19-.37-.39-.57-.57-.22-.21-.58-.22-.81-.03-.26.2-.41.56-.2.82.21.27.43.54.67.79.64.69,1.3,1.37,1.94,2.07.17.19.28.41.19.69-.17.52-.79.6-1.13.24-.85-.92-1.71-1.82-2.55-2.75-.17-.19-.28-.45-.39-.7-.17-.39-.09-.81-.08-1.22.04-1.04.01-2.09.01-3.14,0-.95,0-1.9,0-2.86,0-.32-.27-.6-.55-.57-.3.04-.52.15-.52.56.02,2.28,0,4.55,0,6.83ZM49.67,65.11c.37,0,.7.32.69.66-.01.35-.32.64-.73.64-.46-.14-.57-.26-.57-.61,0-.44.22-.7.61-.7ZM51.57,62.14c.06,0,.11.06.2.11.06.02.12.04.19.06v-3.65h-1.1c0,.79.04,1.57-.01,2.34-.04.6.06,1.03.73,1.14ZM49.53,60.66v-2h-1.1v.44c.02.17-.02.38.07.49.31.36.66.69,1.03,1.06ZM47.13,58.54v-3.47c0-.66,0-1.32,0-1.99,0-.48-.41-.72-.83-.48-.25.14-.29.39-.29.64,0,1.74,0,3.47,0,5.21,0,.06,0,.12.01.13.38-.02.74-.03,1.11-.05ZM47.13,53.08c0-.48-.41-.72-.83-.48-.25.14-.29.39-.29.64,0,1.74,0,3.47,0,5.21,0,.06,0,.12.01.13.38-.02.74-.03,1.11-.05v-3.47c0-.66,0-1.32,0-1.99ZM48.43,58.66v.44c.02.17-.02.38.07.49.31.36.66.69,1.03,1.06v-2h-1.1ZM50.86,58.66c0,.79.04,1.57-.01,2.34-.04.6.06,1.03.73,1.14.06,0,.11.06.2.11.06.02.12.04.19.06v-3.65h-1.1ZM56.02,66.67c0-.59-.26-1.08-.76-1.37-.58-.33-1.2-.59-1.8-.88-.02-.01-.06,0-.1.01.16.19.31.36.44.54.18.26.14.7-.1.85-.31.21-.64.22-.88-.03-.31-.33-.64-.65-1-1-1.4-1.4-2.8-2.8-4.2-4.2-.19-.19-.37-.39-.57-.57-.22-.21-.58-.22-.81-.03-.26.2-.41.56-.2.82.21.27.43.54.67.79.64.69,1.3,1.37,1.94,2.07.17.19.28.41.19.69-.17.52-.79.6-1.13.24-.85-.92-1.71-1.82-2.55-2.75-.17-.19-.28-.45-.39-.7-.17-.39-.09-.81-.08-1.22.04-1.04.01-2.09.01-3.14,0-.95,0-1.9,0-2.86,0-.32-.27-.6-.55-.57-.3.04-.52.15-.52.56.02,2.28,0,4.55,0,6.83,0,.71.17,1.38.49,2,.56,1.08,1.2,2.12,1.76,3.2.47.91,1.14,1.57,2.07,2.02.84.41,1.64.92,2.44,1.42.13.08.25.3.26.46.03.57.01,1.14.01,1.71v1.54h5.35v-.26c0-2.06,0-4.12,0-6.18ZM49.63,66.41c-.46-.14-.57-.26-.57-.61,0-.44.22-.7.61-.7.37,0,.7.32.69.66-.01.35-.32.64-.73.64ZM57.07,44.04c-.15-.22-.33-.26-.56-.26-1.64,0-3.27,0-4.91,0h-.31v10.88h.34c1.63,0,3.25,0,4.88,0,.37,0,.74.1,1.11.15v-10.27c-.21-.19-.42-.32-.55-.51ZM56.58,50.13c-.03.39-.27.62-.73.62-1.05,0-2.11,0-3.16,0-.46,0-.79-.28-.75-.66.05-.42.3-.65.76-.64.62,0,1.24,0,1.89,0,.44,0,.86,0,1.27,0,.41,0,.76.24.72.69ZM56.37,47.43c-.12.08-.27.14-.41.14-.96.01-1.92,0-2.92,0-.25-.02-.49,0-.69-.05-.28-.08-.44-.38-.4-.62.08-.42.25-.61.65-.62,1.1-.02,2.19-.01,3.29,0,.3,0,.59.13.68.43.07.25.08.55-.19.72ZM59.82,43.79c-.11,0-.23.1-.32.18-.2.18-.39.37-.62.61v10.27c.33-.07.62-.18.91-.18,1.7-.02,3.4,0,5.09,0h.32v-10.88c-1.8,0-3.59,0-5.38,0ZM63.67,52.3c-1.15,0-2.29,0-3.44,0-.31,0-.59-.29-.6-.62,0-.31.29-.62.59-.63.27,0,.54,0,.84,0,.89,0,1.75,0,2.61,0,.4,0,.63.23.63.62,0,.39-.23.63-.62.63ZM63.84,49.13c-.17.05-.36.06-.54.06-1.01,0-2.03,0-3.06-.03-.35-.06-.62-.35-.61-.65,0-.31.31-.61.63-.61,1.15,0,2.3,0,3.45,0,.3,0,.55.23.58.51.04.45-.1.63-.45.73ZM64.56,58.66v3.66c.32-.14.61-.26.89-.41.08-.04.14-.15.2-.28v-2.97h-1.09ZM66.52,44.92v10.33c0,.47-.25.72-.72.72-1.94,0-3.87,0-5.81,0-.19,0-.34.03-.45.19-.19.26-.4.51-.59.76-.39.51-.88.62-1.31.07-.15-.2-.28-.41-.44-.61-.2-.25-.41-.43-.79-.42-1.89.03-3.77,0-5.65.02-.47,0-.77-.3-.77-.76.02-2.1,0-4.21,0-6.37v-3.93h-1.54v12.41h7.1c.36,0,.64.1.85.44.88,1.43,2.88,1.39,3.66.04.21-.35.52-.49.93-.49,2.25,0,4.49,0,6.74,0h.33v-12.42h-1.54ZM68.06,58.66h-1.1v2.02c.27-.28.46-.54.71-.72.48-.35.45-.82.39-1.31ZM70.5,53.18c0-.41-.26-.7-.59-.69-.31,0-.52.29-.52.69v5.4h1.12v-2.29c0-1.03,0-2.07,0-3.1ZM72.87,60.1c-.04-2.08-.01-4.16,0-6.24,0-.23-.08-.36-.29-.44-.42-.15-.77.09-.77.55,0,1.99,0,3.98,0,5.97,0,.06-.01.13,0,.19.17.65-.03,1.23-.44,1.71-.83.95-1.71,1.86-2.58,2.77-.3.32-.64.29-.93.06-.31-.25-.29-.67,0-.99.65-.69,1.3-1.38,1.94-2.07.2-.21.39-.42.57-.64.25-.31.26-.63-.07-.93-.27-.24-.63-.23-.9.04-1.9,1.9-3.8,3.79-5.69,5.69-.3.3-.65.26-.93.05-.25-.18-.26-.59-.05-.88.12-.17.27-.33.43-.54-.1.03-.17.05-.22.07-.42.19-.83.38-1.25.57-.82.36-1.22.95-1.21,1.86.02,1.96,0,3.91,0,5.87v.33h5.35c0-1.08,0-2.14,0-3.21,0-.23.06-.4.28-.52,1.08-.61,2.15-1.23,3.26-1.88.23-.23.52-.42.68-.69.73-1.2,1.43-2.41,2.11-3.63.54-.95.72-1.99.7-3.09ZM67.33,66.16c-.16.28-.43.27-.69.24-.23-.03-.53-.39-.48-.63.05-.22.2-.42.35-.6.06-.07.22-.05.37-.08.6.12.72.6.45,1.05ZM72.87,60.1c-.04-2.08-.01-4.16,0-6.24,0-.23-.08-.36-.29-.44-.42-.15-.77.09-.77.55,0,1.99,0,3.98,0,5.97,0,.06-.01.13,0,.19.17.65-.03,1.23-.44,1.71-.83.95-1.71,1.86-2.58,2.77-.3.32-.64.29-.93.06-.31-.25-.29-.67,0-.99.65-.69,1.3-1.38,1.94-2.07.2-.21.39-.42.57-.64.25-.31.26-.63-.07-.93-.27-.24-.63-.23-.9.04-1.9,1.9-3.8,3.79-5.69,5.69-.3.3-.65.26-.93.05-.25-.18-.26-.59-.05-.88.12-.17.27-.33.43-.54-.1.03-.17.05-.22.07-.42.19-.83.38-1.25.57-.82.36-1.22.95-1.21,1.86.02,1.96,0,3.91,0,5.87v.33h5.35c0-1.08,0-2.14,0-3.21,0-.23.06-.4.28-.52,1.08-.61,2.15-1.23,3.26-1.88.23-.23.52-.42.68-.69.73-1.2,1.43-2.41,2.11-3.63.54-.95.72-1.99.7-3.09ZM67.33,66.16c-.16.28-.43.27-.69.24-.23-.03-.53-.39-.48-.63.05-.22.2-.42.35-.6.06-.07.22-.05.37-.08.6.12.72.6.45,1.05ZM70.5,53.18c0-.41-.26-.7-.59-.69-.31,0-.52.29-.52.69v5.4h1.12v-2.29c0-1.03,0-2.07,0-3.1ZM68.06,58.66h-1.1v2.02c.27-.28.46-.54.71-.72.48-.35.45-.82.39-1.31ZM66.52,44.92v10.33c0,.47-.25.72-.72.72-1.94,0-3.87,0-5.81,0-.19,0-.34.03-.45.19-.19.26-.4.51-.59.76-.39.51-.88.62-1.31.07-.15-.2-.28-.41-.44-.61-.2-.25-.41-.43-.79-.42-1.89.03-3.77,0-5.65.02-.47,0-.77-.3-.77-.76.02-2.1,0-4.21,0-6.37v-3.93h-1.54v12.41h7.1c.36,0,.64.1.85.44.88,1.43,2.88,1.39,3.66.04.21-.35.52-.49.93-.49,2.25,0,4.49,0,6.74,0h.33v-12.42h-1.54ZM64.56,58.66v3.66c.32-.14.61-.26.89-.41.08-.04.14-.15.2-.28v-2.97h-1.09ZM59.82,43.79c-.11,0-.23.1-.32.18-.2.18-.39.37-.62.61v10.27c.33-.07.62-.18.91-.18,1.7-.02,3.4,0,5.09,0h.32v-10.88c-1.8,0-3.59,0-5.38,0ZM63.67,52.3c-1.15,0-2.29,0-3.44,0-.31,0-.59-.29-.6-.62,0-.31.29-.62.59-.63.27,0,.54,0,.84,0,.89,0,1.75,0,2.61,0,.4,0,.63.23.63.62,0,.39-.23.63-.62.63ZM63.84,49.13c-.17.05-.36.06-.54.06-1.01,0-2.03,0-3.06-.03-.35-.06-.62-.35-.61-.65,0-.31.31-.61.63-.61,1.15,0,2.3,0,3.45,0,.3,0,.55.23.58.51.04.45-.1.63-.45.73ZM57.07,44.04c-.15-.22-.33-.26-.56-.26-1.64,0-3.27,0-4.91,0h-.31v10.88h.34c1.63,0,3.25,0,4.88,0,.37,0,.74.1,1.11.15v-10.27c-.21-.19-.42-.32-.55-.51ZM56.58,50.13c-.03.39-.27.62-.73.62-1.05,0-2.11,0-3.16,0-.46,0-.79-.28-.75-.66.05-.42.3-.65.76-.64.62,0,1.24,0,1.89,0,.44,0,.86,0,1.27,0,.41,0,.76.24.72.69ZM56.37,47.43c-.12.08-.27.14-.41.14-.96.01-1.92,0-2.92,0-.25-.02-.49,0-.69-.05-.28-.08-.44-.38-.4-.62.08-.42.25-.61.65-.62,1.1-.02,2.19-.01,3.29,0,.3,0,.59.13.68.43.07.25.08.55-.19.72ZM56.02,66.67c0-.59-.26-1.08-.76-1.37-.58-.33-1.2-.59-1.8-.88-.02-.01-.06,0-.1.01.16.19.31.36.44.54.18.26.14.7-.1.85-.31.21-.64.22-.88-.03-.31-.33-.64-.65-1-1-1.4-1.4-2.8-2.8-4.2-4.2-.19-.19-.37-.39-.57-.57-.22-.21-.58-.22-.81-.03-.26.2-.41.56-.2.82.21.27.43.54.67.79.64.69,1.3,1.37,1.94,2.07.17.19.28.41.19.69-.17.52-.79.6-1.13.24-.85-.92-1.71-1.82-2.55-2.75-.17-.19-.28-.45-.39-.7-.17-.39-.09-.81-.08-1.22.04-1.04.01-2.09.01-3.14,0-.95,0-1.9,0-2.86,0-.32-.27-.6-.55-.57-.3.04-.52.15-.52.56.02,2.28,0,4.55,0,6.83,0,.71.17,1.38.49,2,.56,1.08,1.2,2.12,1.76,3.2.47.91,1.14,1.57,2.07,2.02.84.41,1.64.92,2.44,1.42.13.08.25.3.26.46.03.57.01,1.14.01,1.71v1.54h5.35v-.26c0-2.06,0-4.12,0-6.18ZM49.63,66.41c-.46-.14-.57-.26-.57-.61,0-.44.22-.7.61-.7.37,0,.7.32.69.66-.01.35-.32.64-.73.64ZM50.86,58.66c0,.79.04,1.57-.01,2.34-.04.6.06,1.03.73,1.14.06,0,.11.06.2.11.06.02.12.04.19.06v-3.65h-1.1ZM48.43,58.66v.44c.02.17-.02.38.07.49.31.36.66.69,1.03,1.06v-2h-1.1ZM47.13,53.08c0-.48-.41-.72-.83-.48-.25.14-.29.39-.29.64,0,1.74,0,3.47,0,5.21,0,.06,0,.12.01.13.38-.02.74-.03,1.11-.05v-3.47c0-.66,0-1.32,0-1.99ZM47.13,53.08c0-.48-.41-.72-.83-.48-.25.14-.29.39-.29.64,0,1.74,0,3.47,0,5.21,0,.06,0,.12.01.13.38-.02.74-.03,1.11-.05v-3.47c0-.66,0-1.32,0-1.99ZM48.43,58.66v.44c.02.17-.02.38.07.49.31.36.66.69,1.03,1.06v-2h-1.1ZM50.86,58.66c0,.79.04,1.57-.01,2.34-.04.6.06,1.03.73,1.14.06,0,.11.06.2.11.06.02.12.04.19.06v-3.65h-1.1ZM56.02,66.67c0-.59-.26-1.08-.76-1.37-.58-.33-1.2-.59-1.8-.88-.02-.01-.06,0-.1.01.16.19.31.36.44.54.18.26.14.7-.1.85-.31.21-.64.22-.88-.03-.31-.33-.64-.65-1-1-1.4-1.4-2.8-2.8-4.2-4.2-.19-.19-.37-.39-.57-.57-.22-.21-.58-.22-.81-.03-.26.2-.41.56-.2.82.21.27.43.54.67.79.64.69,1.3,1.37,1.94,2.07.17.19.28.41.19.69-.17.52-.79.6-1.13.24-.85-.92-1.71-1.82-2.55-2.75-.17-.19-.28-.45-.39-.7-.17-.39-.09-.81-.08-1.22.04-1.04.01-2.09.01-3.14,0-.95,0-1.9,0-2.86,0-.32-.27-.6-.55-.57-.3.04-.52.15-.52.56.02,2.28,0,4.55,0,6.83,0,.71.17,1.38.49,2,.56,1.08,1.2,2.12,1.76,3.2.47.91,1.14,1.57,2.07,2.02.84.41,1.64.92,2.44,1.42.13.08.25.3.26.46.03.57.01,1.14.01,1.71v1.54h5.35v-.26c0-2.06,0-4.12,0-6.18ZM49.63,66.41c-.46-.14-.57-.26-.57-.61,0-.44.22-.7.61-.7.37,0,.7.32.69.66-.01.35-.32.64-.73.64ZM57.07,44.04c-.15-.22-.33-.26-.56-.26-1.64,0-3.27,0-4.91,0h-.31v10.88h.34c1.63,0,3.25,0,4.88,0,.37,0,.74.1,1.11.15v-10.27c-.21-.19-.42-.32-.55-.51ZM56.58,50.13c-.03.39-.27.62-.73.62-1.05,0-2.11,0-3.16,0-.46,0-.79-.28-.75-.66.05-.42.3-.65.76-.64.62,0,1.24,0,1.89,0,.44,0,.86,0,1.27,0,.41,0,.76.24.72.69ZM56.37,47.43c-.12.08-.27.14-.41.14-.96.01-1.92,0-2.92,0-.25-.02-.49,0-.69-.05-.28-.08-.44-.38-.4-.62.08-.42.25-.61.65-.62,1.1-.02,2.19-.01,3.29,0,.3,0,.59.13.68.43.07.25.08.55-.19.72ZM59.82,43.79c-.11,0-.23.1-.32.18-.2.18-.39.37-.62.61v10.27c.33-.07.62-.18.91-.18,1.7-.02,3.4,0,5.09,0h.32v-10.88c-1.8,0-3.59,0-5.38,0ZM63.67,52.3c-1.15,0-2.29,0-3.44,0-.31,0-.59-.29-.6-.62,0-.31.29-.62.59-.63.27,0,.54,0,.84,0,.89,0,1.75,0,2.61,0,.4,0,.63.23.63.62,0,.39-.23.63-.62.63ZM63.84,49.13c-.17.05-.36.06-.54.06-1.01,0-2.03,0-3.06-.03-.35-.06-.62-.35-.61-.65,0-.31.31-.61.63-.61,1.15,0,2.3,0,3.45,0,.3,0,.55.23.58.51.04.45-.1.63-.45.73ZM64.56,58.66v3.66c.32-.14.61-.26.89-.41.08-.04.14-.15.2-.28v-2.97h-1.09ZM66.52,44.92v10.33c0,.47-.25.72-.72.72-1.94,0-3.87,0-5.81,0-.19,0-.34.03-.45.19-.19.26-.4.51-.59.76-.39.51-.88.62-1.31.07-.15-.2-.28-.41-.44-.61-.2-.25-.41-.43-.79-.42-1.89.03-3.77,0-5.65.02-.47,0-.77-.3-.77-.76.02-2.1,0-4.21,0-6.37v-3.93h-1.54v12.41h7.1c.36,0,.64.1.85.44.88,1.43,2.88,1.39,3.66.04.21-.35.52-.49.93-.49,2.25,0,4.49,0,6.74,0h.33v-12.42h-1.54ZM68.06,58.66h-1.1v2.02c.27-.28.46-.54.71-.72.48-.35.45-.82.39-1.31ZM70.5,53.18c0-.41-.26-.7-.59-.69-.31,0-.52.29-.52.69v5.4h1.12v-2.29c0-1.03,0-2.07,0-3.1ZM72.87,60.1c-.04-2.08-.01-4.16,0-6.24,0-.23-.08-.36-.29-.44-.42-.15-.77.09-.77.55,0,1.99,0,3.98,0,5.97,0,.06-.01.13,0,.19.17.65-.03,1.23-.44,1.71-.83.95-1.71,1.86-2.58,2.77-.3.32-.64.29-.93.06-.31-.25-.29-.67,0-.99.65-.69,1.3-1.38,1.94-2.07.2-.21.39-.42.57-.64.25-.31.26-.63-.07-.93-.27-.24-.63-.23-.9.04-1.9,1.9-3.8,3.79-5.69,5.69-.3.3-.65.26-.93.05-.25-.18-.26-.59-.05-.88.12-.17.27-.33.43-.54-.1.03-.17.05-.22.07-.42.19-.83.38-1.25.57-.82.36-1.22.95-1.21,1.86.02,1.96,0,3.91,0,5.87v.33h5.35c0-1.08,0-2.14,0-3.21,0-.23.06-.4.28-.52,1.08-.61,2.15-1.23,3.26-1.88.23-.23.52-.42.68-.69.73-1.2,1.43-2.41,2.11-3.63.54-.95.72-1.99.7-3.09ZM67.33,66.16c-.16.28-.43.27-.69.24-.23-.03-.53-.39-.48-.63.05-.22.2-.42.35-.6.06-.07.22-.05.37-.08.6.12.72.6.45,1.05ZM72.87,60.1c-.04-2.08-.01-4.16,0-6.24,0-.23-.08-.36-.29-.44-.42-.15-.77.09-.77.55,0,1.99,0,3.98,0,5.97,0,.06-.01.13,0,.19.17.65-.03,1.23-.44,1.71-.83.95-1.71,1.86-2.58,2.77-.3.32-.64.29-.93.06-.31-.25-.29-.67,0-.99.65-.69,1.3-1.38,1.94-2.07.2-.21.39-.42.57-.64.25-.31.26-.63-.07-.93-.27-.24-.63-.23-.9.04-1.9,1.9-3.8,3.79-5.69,5.69-.3.3-.65.26-.93.05-.25-.18-.26-.59-.05-.88.12-.17.27-.33.43-.54-.1.03-.17.05-.22.07-.42.19-.83.38-1.25.57-.82.36-1.22.95-1.21,1.86.02,1.96,0,3.91,0,5.87v.33h5.35c0-1.08,0-2.14,0-3.21,0-.23.06-.4.28-.52,1.08-.61,2.15-1.23,3.26-1.88.23-.23.52-.42.68-.69.73-1.2,1.43-2.41,2.11-3.63.54-.95.72-1.99.7-3.09ZM67.33,66.16c-.16.28-.43.27-.69.24-.23-.03-.53-.39-.48-.63.05-.22.2-.42.35-.6.06-.07.22-.05.37-.08.6.12.72.6.45,1.05ZM70.5,53.18c0-.41-.26-.7-.59-.69-.31,0-.52.29-.52.69v5.4h1.12v-2.29c0-1.03,0-2.07,0-3.1ZM68.06,58.66h-1.1v2.02c.27-.28.46-.54.71-.72.48-.35.45-.82.39-1.31ZM66.52,44.92v10.33c0,.47-.25.72-.72.72-1.94,0-3.87,0-5.81,0-.19,0-.34.03-.45.19-.19.26-.4.51-.59.76-.39.51-.88.62-1.31.07-.15-.2-.28-.41-.44-.61-.2-.25-.41-.43-.79-.42-1.89.03-3.77,0-5.65.02-.47,0-.77-.3-.77-.76.02-2.1,0-4.21,0-6.37v-3.93h-1.54v12.41h7.1c.36,0,.64.1.85.44.88,1.43,2.88,1.39,3.66.04.21-.35.52-.49.93-.49,2.25,0,4.49,0,6.74,0h.33v-12.42h-1.54ZM64.56,58.66v3.66c.32-.14.61-.26.89-.41.08-.04.14-.15.2-.28v-2.97h-1.09ZM59.82,43.79c-.11,0-.23.1-.32.18-.2.18-.39.37-.62.61v10.27c.33-.07.62-.18.91-.18,1.7-.02,3.4,0,5.09,0h.32v-10.88c-1.8,0-3.59,0-5.38,0ZM63.67,52.3c-1.15,0-2.29,0-3.44,0-.31,0-.59-.29-.6-.62,0-.31.29-.62.59-.63.27,0,.54,0,.84,0,.89,0,1.75,0,2.61,0,.4,0,.63.23.63.62,0,.39-.23.63-.62.63ZM63.84,49.13c-.17.05-.36.06-.54.06-1.01,0-2.03,0-3.06-.03-.35-.06-.62-.35-.61-.65,0-.31.31-.61.63-.61,1.15,0,2.3,0,3.45,0,.3,0,.55.23.58.51.04.45-.1.63-.45.73ZM57.07,44.04c-.15-.22-.33-.26-.56-.26-1.64,0-3.27,0-4.91,0h-.31v10.88h.34c1.63,0,3.25,0,4.88,0,.37,0,.74.1,1.11.15v-10.27c-.21-.19-.42-.32-.55-.51ZM56.58,50.13c-.03.39-.27.62-.73.62-1.05,0-2.11,0-3.16,0-.46,0-.79-.28-.75-.66.05-.42.3-.65.76-.64.62,0,1.24,0,1.89,0,.44,0,.86,0,1.27,0,.41,0,.76.24.72.69ZM56.37,47.43c-.12.08-.27.14-.41.14-.96.01-1.92,0-2.92,0-.25-.02-.49,0-.69-.05-.28-.08-.44-.38-.4-.62.08-.42.25-.61.65-.62,1.1-.02,2.19-.01,3.29,0,.3,0,.59.13.68.43.07.25.08.55-.19.72ZM56.02,66.67c0-.59-.26-1.08-.76-1.37-.58-.33-1.2-.59-1.8-.88-.02-.01-.06,0-.1.01.16.19.31.36.44.54.18.26.14.7-.1.85-.31.21-.64.22-.88-.03-.31-.33-.64-.65-1-1-1.4-1.4-2.8-2.8-4.2-4.2-.19-.19-.37-.39-.57-.57-.22-.21-.58-.22-.81-.03-.26.2-.41.56-.2.82.21.27.43.54.67.79.64.69,1.3,1.37,1.94,2.07.17.19.28.41.19.69-.17.52-.79.6-1.13.24-.85-.92-1.71-1.82-2.55-2.75-.17-.19-.28-.45-.39-.7-.17-.39-.09-.81-.08-1.22.04-1.04.01-2.09.01-3.14,0-.95,0-1.9,0-2.86,0-.32-.27-.6-.55-.57-.3.04-.52.15-.52.56.02,2.28,0,4.55,0,6.83,0,.71.17,1.38.49,2,.56,1.08,1.2,2.12,1.76,3.2.47.91,1.14,1.57,2.07,2.02.84.41,1.64.92,2.44,1.42.13.08.25.3.26.46.03.57.01,1.14.01,1.71v1.54h5.35v-.26c0-2.06,0-4.12,0-6.18ZM49.63,66.41c-.46-.14-.57-.26-.57-.61,0-.44.22-.7.61-.7.37,0,.7.32.69.66-.01.35-.32.64-.73.64ZM50.86,58.66c0,.79.04,1.57-.01,2.34-.04.6.06,1.03.73,1.14.06,0,.11.06.2.11.06.02.12.04.19.06v-3.65h-1.1ZM48.43,58.66v.44c.02.17-.02.38.07.49.31.36.66.69,1.03,1.06v-2h-1.1ZM47.13,53.08c0-.48-.41-.72-.83-.48-.25.14-.29.39-.29.64,0,1.74,0,3.47,0,5.21,0,.06,0,.12.01.13.38-.02.74-.03,1.11-.05v-3.47c0-.66,0-1.32,0-1.99ZM47.13,53.08c0-.48-.41-.72-.83-.48-.25.14-.29.39-.29.64,0,1.74,0,3.47,0,5.21,0,.06,0,.12.01.13.38-.02.74-.03,1.11-.05v-3.47c0-.66,0-1.32,0-1.99ZM48.43,58.66v.44c.02.17-.02.38.07.49.31.36.66.69,1.03,1.06v-2h-1.1ZM50.86,58.66c0,.79.04,1.57-.01,2.34-.04.6.06,1.03.73,1.14.06,0,.11.06.2.11.06.02.12.04.19.06v-3.65h-1.1ZM56.02,66.67c0-.59-.26-1.08-.76-1.37-.58-.33-1.2-.59-1.8-.88-.02-.01-.06,0-.1.01.16.19.31.36.44.54.18.26.14.7-.1.85-.31.21-.64.22-.88-.03-.31-.33-.64-.65-1-1-1.4-1.4-2.8-2.8-4.2-4.2-.19-.19-.37-.39-.57-.57-.22-.21-.58-.22-.81-.03-.26.2-.41.56-.2.82.21.27.43.54.67.79.64.69,1.3,1.37,1.94,2.07.17.19.28.41.19.69-.17.52-.79.6-1.13.24-.85-.92-1.71-1.82-2.55-2.75-.17-.19-.28-.45-.39-.7-.17-.39-.09-.81-.08-1.22.04-1.04.01-2.09.01-3.14,0-.95,0-1.9,0-2.86,0-.32-.27-.6-.55-.57-.3.04-.52.15-.52.56.02,2.28,0,4.55,0,6.83,0,.71.17,1.38.49,2,.56,1.08,1.2,2.12,1.76,3.2.47.91,1.14,1.57,2.07,2.02.84.41,1.64.92,2.44,1.42.13.08.25.3.26.46.03.57.01,1.14.01,1.71v1.54h5.35v-.26c0-2.06,0-4.12,0-6.18ZM49.63,66.41c-.46-.14-.57-.26-.57-.61,0-.44.22-.7.61-.7.37,0,.7.32.69.66-.01.35-.32.64-.73.64ZM57.07,44.04c-.15-.22-.33-.26-.56-.26-1.64,0-3.27,0-4.91,0h-.31v10.88h.34c1.63,0,3.25,0,4.88,0,.37,0,.74.1,1.11.15v-10.27c-.21-.19-.42-.32-.55-.51ZM56.58,50.13c-.03.39-.27.62-.73.62-1.05,0-2.11,0-3.16,0-.46,0-.79-.28-.75-.66.05-.42.3-.65.76-.64.62,0,1.24,0,1.89,0,.44,0,.86,0,1.27,0,.41,0,.76.24.72.69ZM56.37,47.43c-.12.08-.27.14-.41.14-.96.01-1.92,0-2.92,0-.25-.02-.49,0-.69-.05-.28-.08-.44-.38-.4-.62.08-.42.25-.61.65-.62,1.1-.02,2.19-.01,3.29,0,.3,0,.59.13.68.43.07.25.08.55-.19.72ZM59.82,43.79c-.11,0-.23.1-.32.18-.2.18-.39.37-.62.61v10.27c.33-.07.62-.18.91-.18,1.7-.02,3.4,0,5.09,0h.32v-10.88c-1.8,0-3.59,0-5.38,0ZM63.67,52.3c-1.15,0-2.29,0-3.44,0-.31,0-.59-.29-.6-.62,0-.31.29-.62.59-.63.27,0,.54,0,.84,0,.89,0,1.75,0,2.61,0,.4,0,.63.23.63.62,0,.39-.23.63-.62.63ZM63.84,49.13c-.17.05-.36.06-.54.06-1.01,0-2.03,0-3.06-.03-.35-.06-.62-.35-.61-.65,0-.31.31-.61.63-.61,1.15,0,2.3,0,3.45,0,.3,0,.55.23.58.51.04.45-.1.63-.45.73ZM64.56,58.66v3.66c.32-.14.61-.26.89-.41.08-.04.14-.15.2-.28v-2.97h-1.09ZM66.52,44.92v10.33c0,.47-.25.72-.72.72-1.94,0-3.87,0-5.81,0-.19,0-.34.03-.45.19-.19.26-.4.51-.59.76-.39.51-.88.62-1.31.07-.15-.2-.28-.41-.44-.61-.2-.25-.41-.43-.79-.42-1.89.03-3.77,0-5.65.02-.47,0-.77-.3-.77-.76.02-2.1,0-4.21,0-6.37v-3.93h-1.54v12.41h7.1c.36,0,.64.1.85.44.88,1.43,2.88,1.39,3.66.04.21-.35.52-.49.93-.49,2.25,0,4.49,0,6.74,0h.33v-12.42h-1.54ZM68.06,58.66h-1.1v2.02c.27-.28.46-.54.71-.72.48-.35.45-.82.39-1.31ZM70.5,53.18c0-.41-.26-.7-.59-.69-.31,0-.52.29-.52.69v5.4h1.12v-2.29c0-1.03,0-2.07,0-3.1ZM72.87,60.1c-.04-2.08-.01-4.16,0-6.24,0-.23-.08-.36-.29-.44-.42-.15-.77.09-.77.55,0,1.99,0,3.98,0,5.97,0,.06-.01.13,0,.19.17.65-.03,1.23-.44,1.71-.83.95-1.71,1.86-2.58,2.77-.3.32-.64.29-.93.06-.31-.25-.29-.67,0-.99.65-.69,1.3-1.38,1.94-2.07.2-.21.39-.42.57-.64.25-.31.26-.63-.07-.93-.27-.24-.63-.23-.9.04-1.9,1.9-3.8,3.79-5.69,5.69-.3.3-.65.26-.93.05-.25-.18-.26-.59-.05-.88.12-.17.27-.33.43-.54-.1.03-.17.05-.22.07-.42.19-.83.38-1.25.57-.82.36-1.22.95-1.21,1.86.02,1.96,0,3.91,0,5.87v.33h5.35c0-1.08,0-2.14,0-3.21,0-.23.06-.4.28-.52,1.08-.61,2.15-1.23,3.26-1.88.23-.23.52-.42.68-.69.73-1.2,1.43-2.41,2.11-3.63.54-.95.72-1.99.7-3.09ZM67.33,66.16c-.16.28-.43.27-.69.24-.23-.03-.53-.39-.48-.63.05-.22.2-.42.35-.6.06-.07.22-.05.37-.08.6.12.72.6.45,1.05ZM72.87,60.1c-.04-2.08-.01-4.16,0-6.24,0-.23-.08-.36-.29-.44-.42-.15-.77.09-.77.55,0,1.99,0,3.98,0,5.97,0,.06-.01.13,0,.19.17.65-.03,1.23-.44,1.71-.83.95-1.71,1.86-2.58,2.77-.3.32-.64.29-.93.06-.31-.25-.29-.67,0-.99.65-.69,1.3-1.38,1.94-2.07.2-.21.39-.42.57-.64.25-.31.26-.63-.07-.93-.27-.24-.63-.23-.9.04-1.9,1.9-3.8,3.79-5.69,5.69-.3.3-.65.26-.93.05-.25-.18-.26-.59-.05-.88.12-.17.27-.33.43-.54-.1.03-.17.05-.22.07-.42.19-.83.38-1.25.57-.82.36-1.22.95-1.21,1.86.02,1.96,0,3.91,0,5.87v.33h5.35c0-1.08,0-2.14,0-3.21,0-.23.06-.4.28-.52,1.08-.61,2.15-1.23,3.26-1.88.23-.23.52-.42.68-.69.73-1.2,1.43-2.41,2.11-3.63.54-.95.72-1.99.7-3.09ZM67.33,66.16c-.16.28-.43.27-.69.24-.23-.03-.53-.39-.48-.63.05-.22.2-.42.35-.6.06-.07.22-.05.37-.08.6.12.72.6.45,1.05ZM70.5,53.18c0-.41-.26-.7-.59-.69-.31,0-.52.29-.52.69v5.4h1.12v-2.29c0-1.03,0-2.07,0-3.1ZM68.06,58.66h-1.1v2.02c.27-.28.46-.54.71-.72.48-.35.45-.82.39-1.31ZM66.52,44.92v10.33c0,.47-.25.72-.72.72-1.94,0-3.87,0-5.81,0-.19,0-.34.03-.45.19-.19.26-.4.51-.59.76-.39.51-.88.62-1.31.07-.15-.2-.28-.41-.44-.61-.2-.25-.41-.43-.79-.42-1.89.03-3.77,0-5.65.02-.47,0-.77-.3-.77-.76.02-2.1,0-4.21,0-6.37v-3.93h-1.54v12.41h7.1c.36,0,.64.1.85.44.88,1.43,2.88,1.39,3.66.04.21-.35.52-.49.93-.49,2.25,0,4.49,0,6.74,0h.33v-12.42h-1.54ZM64.56,58.66v3.66c.32-.14.61-.26.89-.41.08-.04.14-.15.2-.28v-2.97h-1.09ZM59.82,43.79c-.11,0-.23.1-.32.18-.2.18-.39.37-.62.61v10.27c.33-.07.62-.18.91-.18,1.7-.02,3.4,0,5.09,0h.32v-10.88c-1.8,0-3.59,0-5.38,0ZM63.67,52.3c-1.15,0-2.29,0-3.44,0-.31,0-.59-.29-.6-.62,0-.31.29-.62.59-.63.27,0,.54,0,.84,0,.89,0,1.75,0,2.61,0,.4,0,.63.23.63.62,0,.39-.23.63-.62.63ZM63.84,49.13c-.17.05-.36.06-.54.06-1.01,0-2.03,0-3.06-.03-.35-.06-.62-.35-.61-.65,0-.31.31-.61.63-.61,1.15,0,2.3,0,3.45,0,.3,0,.55.23.58.51.04.45-.1.63-.45.73ZM57.07,44.04c-.15-.22-.33-.26-.56-.26-1.64,0-3.27,0-4.91,0h-.31v10.88h.34c1.63,0,3.25,0,4.88,0,.37,0,.74.1,1.11.15v-10.27c-.21-.19-.42-.32-.55-.51ZM56.58,50.13c-.03.39-.27.62-.73.62-1.05,0-2.11,0-3.16,0-.46,0-.79-.28-.75-.66.05-.42.3-.65.76-.64.62,0,1.24,0,1.89,0,.44,0,.86,0,1.27,0,.41,0,.76.24.72.69ZM56.37,47.43c-.12.08-.27.14-.41.14-.96.01-1.92,0-2.92,0-.25-.02-.49,0-.69-.05-.28-.08-.44-.38-.4-.62.08-.42.25-.61.65-.62,1.1-.02,2.19-.01,3.29,0,.3,0,.59.13.68.43.07.25.08.55-.19.72ZM56.02,66.67c0-.59-.26-1.08-.76-1.37-.58-.33-1.2-.59-1.8-.88-.02-.01-.06,0-.1.01.16.19.31.36.44.54.18.26.14.7-.1.85-.31.21-.64.22-.88-.03-.31-.33-.64-.65-1-1-1.4-1.4-2.8-2.8-4.2-4.2-.19-.19-.37-.39-.57-.57-.22-.21-.58-.22-.81-.03-.26.2-.41.56-.2.82.21.27.43.54.67.79.64.69,1.3,1.37,1.94,2.07.17.19.28.41.19.69-.17.52-.79.6-1.13.24-.85-.92-1.71-1.82-2.55-2.75-.17-.19-.28-.45-.39-.7-.17-.39-.09-.81-.08-1.22.04-1.04.01-2.09.01-3.14,0-.95,0-1.9,0-2.86,0-.32-.27-.6-.55-.57-.3.04-.52.15-.52.56.02,2.28,0,4.55,0,6.83,0,.71.17,1.38.49,2,.56,1.08,1.2,2.12,1.76,3.2.47.91,1.14,1.57,2.07,2.02.84.41,1.64.92,2.44,1.42.13.08.25.3.26.46.03.57.01,1.14.01,1.71v1.54h5.35v-.26c0-2.06,0-4.12,0-6.18ZM49.63,66.41c-.46-.14-.57-.26-.57-.61,0-.44.22-.7.61-.7.37,0,.7.32.69.66-.01.35-.32.64-.73.64ZM50.86,58.66c0,.79.04,1.57-.01,2.34-.04.6.06,1.03.73,1.14.06,0,.11.06.2.11.06.02.12.04.19.06v-3.65h-1.1ZM48.43,58.66v.44c.02.17-.02.38.07.49.31.36.66.69,1.03,1.06v-2h-1.1ZM47.13,53.08c0-.48-.41-.72-.83-.48-.25.14-.29.39-.29.64,0,1.74,0,3.47,0,5.21,0,.06,0,.12.01.13.38-.02.74-.03,1.11-.05v-3.47c0-.66,0-1.32,0-1.99Z"/>
        <polygon class="cls-4" points="13.61 59.93 14.72 62.46 17.47 62.16 15.84 64.39 17.47 66.62 14.72 66.32 13.61 68.85 12.49 66.32 9.75 66.62 11.38 64.39 9.75 62.16 12.49 62.46 13.61 59.93"/>
        <polygon class="cls-1" points="101.43 59.93 102.54 62.46 105.29 62.16 103.66 64.39 105.29 66.62 102.54 66.32 101.43 68.85 100.31 66.32 97.57 66.62 99.2 64.39 97.57 62.16 100.31 62.46 101.43 59.93"/>
      </g>
    </g>
    <g>
      <path class="cls-2" d="M138.57,58.07V13.39h28v9.65h-16.26v7.27h14.36v9.95h-14.36v17.81h-11.74Z"/>
      <path class="cls-2" d="M186.7,13.39v26.87c0,1.63.57,3.01,1.7,4.14s2.51,1.7,4.14,1.7,3.01-.57,4.14-1.7,1.7-2.51,1.7-4.14V13.39h11.79v27.04c0,4.88-1.72,9.05-5.15,12.48s-7.6,5.15-12.48,5.15-9.09-1.71-12.51-5.12c-3.42-3.42-5.12-7.58-5.12-12.51V13.39h11.79Z"/>
      <path class="cls-2" d="M218.16,25v-11.68h35.21v11.68h-11.85v33.06h-11.74V25h-11.62Z"/>
      <path class="cls-2" d="M273.2,13.39v26.87c0,1.63.57,3.01,1.7,4.14s2.51,1.7,4.14,1.7,3.01-.57,4.14-1.7,1.7-2.51,1.7-4.14V13.39h11.79v27.04c0,4.88-1.72,9.05-5.15,12.48s-7.6,5.15-12.48,5.15-9.09-1.71-12.51-5.12c-3.42-3.42-5.12-7.58-5.12-12.51V13.39h11.79Z"/>
      <path class="cls-2" d="M345.04,58.07h-13.52l-6.91-11.85h-7.27v11.85h-11.74V13.39h18.82c4.53,0,8.4,1.61,11.62,4.83s4.83,7.09,4.83,11.62c0,4.77-1.77,8.78-5.3,12.03l9.47,16.2ZM317.34,23.28v12.81h7.27c1.79,0,3.31-.62,4.56-1.85,1.25-1.23,1.88-2.74,1.88-4.53s-.63-3.31-1.88-4.56-2.77-1.88-4.56-1.88h-7.27Z"/>
      <path class="cls-2" d="M350.82,58.07V13.39h27.76v9.71h-16.03v7.27h14.18v9.89h-14.18v8.22h16.03v9.59h-27.76Z"/>
      <path class="cls-2" d="M413.79,58.07V13.39h11.74v32.88h16.08v11.79h-27.82Z"/>
      <path class="cls-2" d="M450,58.07V13.39h27.76v9.71h-16.02v7.27h14.18v9.89h-14.18v8.22h16.02v9.59h-27.76Z"/>
      <path class="cls-2" d="M494.92,58.07h-11.74l20.85-44.68h5.3l21.03,44.68h-11.74l-2.74-5.84h-18.29l-2.68,5.84ZM506.77,32.51l-4.59,9.83h9.11l-4.53-9.83Z"/>
      <path class="cls-2" d="M536.32,58.07V13.39h16.56c6.16,0,11.42,2.18,15.79,6.55,4.37,4.37,6.55,9.63,6.55,15.79s-2.18,11.42-6.55,15.79-9.63,6.55-15.79,6.55h-16.56ZM548,25.36v21.15h4.94c2.9,0,5.39-1.03,7.48-3.1,2.08-2.06,3.13-4.57,3.13-7.51s-1.04-5.38-3.13-7.45c-2.08-2.06-4.58-3.1-7.48-3.1h-4.94Z"/>
      <path class="cls-2" d="M583.32,58.07V13.39h27.76v9.71h-16.02v7.27h14.18v9.89h-14.18v8.22h16.02v9.59h-27.76Z"/>
      <path class="cls-2" d="M658.92,58.07h-13.52l-6.91-11.85h-7.27v11.85h-11.74V13.39h18.82c4.53,0,8.4,1.61,11.62,4.83s4.83,7.09,4.83,11.62c0,4.77-1.77,8.78-5.3,12.03l9.47,16.2ZM631.22,23.28v12.81h7.27c1.79,0,3.31-.62,4.56-1.85,1.25-1.23,1.88-2.74,1.88-4.53s-.63-3.31-1.88-4.56-2.77-1.88-4.56-1.88h-7.27Z"/>
      <path class="cls-2" d="M691.5,27.09h-10.37c0-.91-.34-1.71-1.01-2.38-.68-.67-1.47-1.01-2.38-1.01s-1.7.34-2.35,1.01c-.66.68-.98,1.47-.98,2.38s.33,1.7.98,2.35,1.44.98,2.35.98c2.14,0,4.16.48,6.05,1.43,1.89.95,3.46,2.24,4.74,3.87,1.99,2.5,2.98,5.38,2.98,8.64,0,3.81-1.34,7.05-4.02,9.71-2.68,2.66-5.93,3.99-9.74,3.99s-7.11-1.33-9.77-3.99c-2.66-2.66-3.99-5.96-3.99-9.89h10.42c0,.95.33,1.76.98,2.41s1.44.98,2.35.98,1.71-.33,2.38-.98c.67-.66,1.01-1.44,1.01-2.35s-.34-1.71-1.01-2.38c-.68-.67-1.47-1.01-2.38-1.01-3.81,0-7.05-1.33-9.71-3.99-2.66-2.66-3.99-5.9-3.99-9.71s1.33-7.06,3.99-9.74c2.66-2.68,5.9-4.02,9.71-4.02s7.06,1.33,9.74,3.99c2.68,2.66,4.02,5.9,4.02,9.71Z"/>
    </g>
    <g>
      <path class="cls-1" d="M138.91,96.11v-30.25h7.94v30.25h-7.94Z"/>
      <path class="cls-1" d="M178.44,96.11h-3.27l-14.28-14.32v14.32h-7.95v-30.25h3.23l14.32,14.28v-14.28h7.95v30.25Z"/>
      <path class="cls-1" d="M183.88,73.73v-7.9h23.83v7.9h-8.03v22.38h-7.94v-22.38h-7.86Z"/>
      <path class="cls-1" d="M213.2,96.11v-30.25h18.79v6.57h-10.85v4.92h9.6v6.69h-9.6v5.57h10.85v6.49h-18.79Z"/>
      <path class="cls-1" d="M264.38,96.11h-9.16l-4.68-8.03h-4.92v8.03h-7.95v-30.25h12.74c3.06,0,5.69,1.09,7.86,3.27s3.27,4.8,3.27,7.86c0,3.23-1.2,5.94-3.59,8.15l6.41,10.97ZM245.63,72.56v8.67h4.92c1.21,0,2.24-.42,3.09-1.25.85-.83,1.27-1.86,1.27-3.07s-.42-2.24-1.27-3.08c-.85-.85-1.88-1.27-3.09-1.27h-4.92Z"/>
      <path class="cls-1" d="M293.78,96.11h-3.27l-14.28-14.32v14.32h-7.95v-30.25h3.23l14.32,14.28v-14.28h7.95v30.25Z"/>
      <path class="cls-1" d="M305.8,96.11h-7.95l14.12-30.25h3.59l14.24,30.25h-7.94l-1.85-3.95h-12.38l-1.81,3.95ZM313.82,78.81l-3.1,6.66h6.17l-3.07-6.66Z"/>
      <path class="cls-1" d="M331.17,73.73v-7.9h23.83v7.9h-8.03v22.38h-7.94v-22.38h-7.86Z"/>
      <path class="cls-1" d="M360.45,96.11v-30.25h7.95v30.25h-7.95Z"/>
      <path class="cls-1" d="M378.29,91.7c-2.94-2.94-4.42-6.5-4.42-10.67s1.47-7.74,4.42-10.71c2.94-2.97,6.5-4.46,10.67-4.46s7.73,1.49,10.69,4.46c2.96,2.97,4.44,6.54,4.44,10.71s-1.48,7.72-4.44,10.67c-2.96,2.94-6.52,4.42-10.69,4.42s-7.72-1.47-10.67-4.42ZM394.06,86.09c1.41-1.41,2.12-3.11,2.12-5.1s-.71-3.69-2.12-5.1c-1.41-1.41-3.11-2.12-5.1-2.12s-3.68.71-5.08,2.12c-1.4,1.41-2.1,3.11-2.1,5.1s.71,3.69,2.12,5.1,3.1,2.12,5.06,2.12,3.69-.71,5.1-2.12Z"/>
      <path class="cls-1" d="M435.1,96.11h-3.27l-14.28-14.32v14.32h-7.94v-30.25h3.23l14.32,14.28v-14.28h7.95v30.25Z"/>
      <path class="cls-1" d="M447.12,96.11h-7.94l14.12-30.25h3.59l14.24,30.25h-7.95l-1.86-3.95h-12.38l-1.82,3.95ZM455.14,78.81l-3.11,6.66h6.17l-3.06-6.66Z"/>
      <path class="cls-1" d="M475.15,96.11v-30.25h7.94v22.26h10.89v7.99h-18.83Z"/>
      <path class="cls-1" d="M535.96,75.14h-7.02c0-.62-.23-1.16-.69-1.61-.46-.46-1-.69-1.61-.69s-1.15.23-1.59.69c-.44.46-.67,1-.67,1.61s.22,1.15.67,1.59.97.67,1.59.67c1.45,0,2.82.32,4.09.97,1.28.65,2.34,1.52,3.21,2.62,1.34,1.69,2.02,3.64,2.02,5.85,0,2.58-.91,4.77-2.72,6.57-1.81,1.8-4.01,2.7-6.59,2.7s-4.81-.9-6.61-2.7c-1.8-1.8-2.7-4.03-2.7-6.69h7.06c0,.65.22,1.19.67,1.63.44.44.97.67,1.59.67s1.16-.22,1.61-.67c.46-.44.69-.97.69-1.59s-.23-1.16-.69-1.61c-.46-.46-1-.69-1.61-.69-2.58,0-4.77-.9-6.57-2.7-1.8-1.8-2.7-3.99-2.7-6.57s.9-4.78,2.7-6.59c1.8-1.81,3.99-2.72,6.57-2.72s4.78.9,6.59,2.7c1.82,1.8,2.72,3.99,2.72,6.57Z"/>
      <path class="cls-1" d="M566.25,70.26l-5.57,5.61c-1.32-1.32-3.01-1.98-5.08-1.98s-3.77.67-5.1,2c-1.33,1.33-2,3.03-2,5.1s.67,3.77,2,5.1,3.03,2,5.1,2,3.79-.67,5.08-2.02l5.65,5.57c-2.98,2.98-6.56,4.48-10.73,4.48s-7.73-1.48-10.69-4.44c-2.96-2.96-4.44-6.52-4.44-10.69s1.48-7.73,4.44-10.69c2.96-2.96,6.52-4.44,10.69-4.44s7.72,1.47,10.65,4.4Z"/>
      <path class="cls-1" d="M572.38,65.87h7.94v10.77h9.6v-10.77h7.95v30.25h-7.95v-11.53h-9.6v11.53h-7.94v-30.25Z"/>
      <path class="cls-1" d="M607.77,91.7c-2.94-2.94-4.42-6.5-4.42-10.67s1.47-7.74,4.42-10.71c2.94-2.97,6.5-4.46,10.67-4.46s7.73,1.49,10.69,4.46c2.96,2.97,4.44,6.54,4.44,10.71s-1.48,7.72-4.44,10.67c-2.96,2.94-6.52,4.42-10.69,4.42s-7.72-1.47-10.67-4.42ZM623.54,86.09c1.41-1.41,2.12-3.11,2.12-5.1s-.71-3.69-2.12-5.1c-1.41-1.41-3.11-2.12-5.1-2.12s-3.68.71-5.08,2.12c-1.4,1.41-2.1,3.11-2.1,5.1s.71,3.69,2.12,5.1,3.1,2.12,5.06,2.12,3.69-.71,5.1-2.12Z"/>
      <path class="cls-1" d="M642.29,91.7c-2.94-2.94-4.42-6.5-4.42-10.67s1.47-7.74,4.42-10.71c2.94-2.97,6.5-4.46,10.67-4.46s7.73,1.49,10.69,4.46c2.96,2.97,4.44,6.54,4.44,10.71s-1.48,7.72-4.44,10.67c-2.96,2.94-6.52,4.42-10.69,4.42s-7.72-1.47-10.67-4.42ZM658.06,86.09c1.41-1.41,2.12-3.11,2.12-5.1s-.71-3.69-2.12-5.1c-1.41-1.41-3.11-2.12-5.1-2.12s-3.68.71-5.08,2.12c-1.4,1.41-2.1,3.11-2.1,5.1s.71,3.69,2.12,5.1,3.1,2.12,5.06,2.12,3.69-.71,5.1-2.12Z"/>
      <path class="cls-1" d="M673.61,96.11v-30.25h7.94v22.26h10.89v7.99h-18.83Z"/>
    </g>
  </g>
</svg>